<svg xmlns="http://www.w3.org/2000/svg" xmlns:xlink="http://www.w3.org/1999/xlink" width="1000" zoomAndPan="magnify" viewBox="0 0 750 749.999995" height="1000" preserveAspectRatio="xMidYMid meet" version="1.0"><defs><clipPath id="d19f223a1f"><path d="M 48.800781 61.605469 L 375 61.605469 L 375 375 L 48.800781 375 Z M 48.800781 61.605469 " clip-rule="nonzero"/></clipPath><clipPath id="674be544de"><path d="M 0.800781 0.605469 L 327 0.605469 L 327 314 L 0.800781 314 Z M 0.800781 0.605469 " clip-rule="nonzero"/></clipPath><clipPath id="67260327f7"><rect x="0" width="327" y="0" height="314"/></clipPath><clipPath id="f2dbdc5802"><path d="M 375 61.605469 L 701.199219 61.605469 L 701.199219 151.800781 L 375 151.800781 Z M 375 61.605469 " clip-rule="nonzero"/></clipPath><clipPath id="21e1f8eb26"><path d="M 0 0.605469 L 326.199219 0.605469 L 326.199219 90.800781 L 0 90.800781 Z M 0 0.605469 " clip-rule="nonzero"/></clipPath><clipPath id="8f39be1496"><rect x="0" width="327" y="0" height="91"/></clipPath><clipPath id="244ff15164"><path d="M 375.003906 151.792969 L 538.101562 151.792969 L 538.101562 565.175781 L 375.003906 565.175781 Z M 375.003906 151.792969 " clip-rule="nonzero"/></clipPath><clipPath id="e224e7ac55"><path d="M 0.00390625 0.792969 L 163.101562 0.792969 L 163.101562 414.175781 L 0.00390625 414.175781 Z M 0.00390625 0.792969 " clip-rule="nonzero"/></clipPath><clipPath id="9c6351ae53"><rect x="0" width="164" y="0" height="415"/></clipPath><clipPath id="7c4df3804f"><path d="M 538.105469 151.792969 L 619.652344 151.792969 L 619.652344 374.992188 L 538.105469 374.992188 Z M 538.105469 151.792969 " clip-rule="nonzero"/></clipPath><clipPath id="89f7178b8e"><path d="M 0.105469 0.792969 L 81.652344 0.792969 L 81.652344 223.992188 L 0.105469 223.992188 Z M 0.105469 0.792969 " clip-rule="nonzero"/></clipPath><clipPath id="2786252389"><rect x="0" width="82" y="0" height="224"/></clipPath><clipPath id="aa897f6480"><path d="M 619.652344 151.792969 L 701.203125 151.792969 L 701.203125 446.527344 L 619.652344 446.527344 Z M 619.652344 151.792969 " clip-rule="nonzero"/></clipPath><clipPath id="86c00a8d33"><path d="M 0.652344 0.792969 L 82.203125 0.792969 L 82.203125 295.527344 L 0.652344 295.527344 Z M 0.652344 0.792969 " clip-rule="nonzero"/></clipPath><clipPath id="d4b23ebd5d"><rect x="0" width="83" y="0" height="296"/></clipPath><clipPath id="6135c3ab9f"><path d="M 538.101562 374.996094 L 578.878906 374.996094 L 578.878906 674.996094 L 538.101562 674.996094 Z M 538.101562 374.996094 " clip-rule="nonzero"/></clipPath><clipPath id="7387bce4bf"><path d="M 0.101562 0.996094 L 40.878906 0.996094 L 40.878906 300.996094 L 0.101562 300.996094 Z M 0.101562 0.996094 " clip-rule="nonzero"/></clipPath><clipPath id="52a51887d6"><rect x="0" width="41" y="0" height="301"/></clipPath><clipPath id="891506cd3b"><path d="M 578.878906 374.996094 L 619.652344 374.996094 L 619.652344 674.996094 L 578.878906 674.996094 Z M 578.878906 374.996094 " clip-rule="nonzero"/></clipPath><clipPath id="bd79155050"><path d="M 0.878906 0.996094 L 41.652344 0.996094 L 41.652344 300.996094 L 0.878906 300.996094 Z M 0.878906 0.996094 " clip-rule="nonzero"/></clipPath><clipPath id="25957aa624"><rect x="0" width="42" y="0" height="301"/></clipPath><clipPath id="d13ca7f275"><path d="M 48.800781 375 L 375 375 L 375 565.183594 L 48.800781 565.183594 Z M 48.800781 375 " clip-rule="nonzero"/></clipPath><clipPath id="a55406b597"><path d="M 0.800781 0 L 327 0 L 327 190.183594 L 0.800781 190.183594 Z M 0.800781 0 " clip-rule="nonzero"/></clipPath><clipPath id="2495be0bac"><rect x="0" width="327" y="0" height="191"/></clipPath><clipPath id="fdb81f8435"><path d="M 48.800781 565.183594 L 538.101562 565.183594 L 538.101562 675 L 48.800781 675 Z M 48.800781 565.183594 " clip-rule="nonzero"/></clipPath><clipPath id="b595989835"><path d="M 0.800781 0.183594 L 490.101562 0.183594 L 490.101562 110 L 0.800781 110 Z M 0.800781 0.183594 " clip-rule="nonzero"/></clipPath><clipPath id="3ca297cd89"><rect x="0" width="491" y="0" height="110"/></clipPath><clipPath id="5bae2834a5"><path d="M 619.652344 446.527344 L 701.203125 446.527344 L 701.203125 674.992188 L 619.652344 674.992188 Z M 619.652344 446.527344 " clip-rule="nonzero"/></clipPath><clipPath id="b7a69ed481"><path d="M 0.652344 0.527344 L 82.203125 0.527344 L 82.203125 228.992188 L 0.652344 228.992188 Z M 0.652344 0.527344 " clip-rule="nonzero"/></clipPath><clipPath id="c8c63cbeca"><rect x="0" width="83" y="0" height="229"/></clipPath></defs><g clip-path="url(#d19f223a1f)"><g transform="matrix(1, 0, 0, 1, 48, 61)"><g clip-path="url(#67260327f7)"><g clip-path="url(#674be544de)"><path fill="#ecc4ff" d="M 0.800781 0.605469 L 326.433594 0.605469 L 326.433594 314 L 0.800781 314 Z M 0.800781 0.605469 " fill-opacity="1" fill-rule="nonzero"/></g></g></g></g><g clip-path="url(#f2dbdc5802)"><g transform="matrix(1, 0, 0, 1, 375, 61)"><g clip-path="url(#8f39be1496)"><g clip-path="url(#21e1f8eb26)"><path fill="#0097b2" d="M 0 0.605469 L 326.25 0.605469 L 326.25 90.800781 L 0 90.800781 Z M 0 0.605469 " fill-opacity="1" fill-rule="nonzero"/></g></g></g></g><g clip-path="url(#244ff15164)"><g transform="matrix(1, 0, 0, 1, 375, 151)"><g clip-path="url(#9c6351ae53)"><g clip-path="url(#e224e7ac55)"><path fill="#ffde59" d="M 0.00390625 414.175781 L 0.00390625 0.691406 L 163.101562 0.691406 L 163.101562 414.175781 Z M 0.00390625 414.175781 " fill-opacity="1" fill-rule="nonzero"/></g></g></g></g><g clip-path="url(#7c4df3804f)"><g transform="matrix(1, 0, 0, 1, 538, 151)"><g clip-path="url(#2786252389)"><g clip-path="url(#89f7178b8e)"><path fill="#ff5757" d="M 0.105469 223.992188 L 0.105469 0.6875 L 81.652344 0.6875 L 81.652344 223.992188 Z M 0.105469 223.992188 " fill-opacity="1" fill-rule="nonzero"/></g></g></g></g><g clip-path="url(#aa897f6480)"><g transform="matrix(1, 0, 0, 1, 619, 151)"><g clip-path="url(#d4b23ebd5d)"><g clip-path="url(#86c00a8d33)"><path fill="#7e00b2" d="M 0.652344 295.527344 L 0.652344 0.863281 L 82.203125 0.863281 L 82.203125 295.527344 Z M 0.652344 295.527344 " fill-opacity="1" fill-rule="nonzero"/></g></g></g></g><g clip-path="url(#6135c3ab9f)"><g transform="matrix(1, 0, 0, 1, 538, 374)"><g clip-path="url(#52a51887d6)"><g clip-path="url(#7387bce4bf)"><path fill="#00bf63" d="M 0.101562 300.996094 L 0.101562 0.917969 L 40.878906 0.917969 L 40.878906 300.996094 Z M 0.101562 300.996094 " fill-opacity="1" fill-rule="nonzero"/></g></g></g></g><g clip-path="url(#891506cd3b)"><g transform="matrix(1, 0, 0, 1, 578, 374)"><g clip-path="url(#25957aa624)"><g clip-path="url(#bd79155050)"><path fill="#5e17eb" d="M 0.878906 300.996094 L 0.878906 0.917969 L 41.652344 0.917969 L 41.652344 300.996094 Z M 0.878906 300.996094 " fill-opacity="1" fill-rule="nonzero"/></g></g></g></g><g clip-path="url(#d13ca7f275)"><g transform="matrix(1, 0, 0, 1, 48, 375)"><g clip-path="url(#2495be0bac)"><g clip-path="url(#a55406b597)"><path fill="#c1ff72" d="M 0.800781 0 L 326.9375 0 L 326.9375 190.183594 L 0.800781 190.183594 Z M 0.800781 0 " fill-opacity="1" fill-rule="nonzero"/></g></g></g></g><g clip-path="url(#fdb81f8435)"><g transform="matrix(1, 0, 0, 1, 48, 565)"><g clip-path="url(#3ca297cd89)"><g clip-path="url(#b595989835)"><path fill="#ff751f" d="M 0.800781 0.183594 L 490.253906 0.183594 L 490.253906 110 L 0.800781 110 Z M 0.800781 0.183594 " fill-opacity="1" fill-rule="nonzero"/></g></g></g></g><g clip-path="url(#5bae2834a5)"><g transform="matrix(1, 0, 0, 1, 619, 446)"><g clip-path="url(#c8c63cbeca)"><g clip-path="url(#b7a69ed481)"><path fill="#1800ad" d="M 0.652344 228.992188 L 0.652344 0.585938 L 82.203125 0.585938 L 82.203125 228.992188 Z M 0.652344 228.992188 " fill-opacity="1" fill-rule="nonzero"/></g></g></g></g></svg>