<svg xmlns="http://www.w3.org/2000/svg" xmlns:xlink="http://www.w3.org/1999/xlink" width="1000" zoomAndPan="magnify" viewBox="0 0 750 749.999995" height="1000" preserveAspectRatio="xMidYMid meet" version="1.0"><defs><clipPath id="3ea24cd72b"><path d="M 31.128906 31.128906 L 718.871094 31.128906 L 718.871094 718.871094 L 31.128906 718.871094 Z M 31.128906 31.128906 " clip-rule="nonzero"/></clipPath><clipPath id="cf2c14db13"><path d="M 375 31.128906 C 185.085938 31.128906 31.128906 185.085938 31.128906 375 C 31.128906 564.914062 185.085938 718.871094 375 718.871094 C 564.914062 718.871094 718.871094 564.914062 718.871094 375 C 718.871094 185.085938 564.914062 31.128906 375 31.128906 Z M 375 31.128906 " clip-rule="nonzero"/></clipPath><clipPath id="a6738f22a0"><path d="M 0.128906 0.128906 L 687.871094 0.128906 L 687.871094 687.871094 L 0.128906 687.871094 Z M 0.128906 0.128906 " clip-rule="nonzero"/></clipPath><clipPath id="ccfa2e5a9e"><path d="M 344 0.128906 C 154.085938 0.128906 0.128906 154.085938 0.128906 344 C 0.128906 533.914062 154.085938 687.871094 344 687.871094 C 533.914062 687.871094 687.871094 533.914062 687.871094 344 C 687.871094 154.085938 533.914062 0.128906 344 0.128906 Z M 344 0.128906 " clip-rule="nonzero"/></clipPath><clipPath id="11b4e3e611"><rect x="0" width="688" y="0" height="688"/></clipPath><clipPath id="61bb8e649e"><path d="M 175.875 31.128906 L 613.335938 31.128906 L 613.335938 468.589844 L 175.875 468.589844 Z M 175.875 31.128906 " clip-rule="nonzero"/></clipPath><clipPath id="699cfdf98b"><path d="M 394.605469 31.128906 C 273.804688 31.128906 175.875 129.058594 175.875 249.859375 C 175.875 370.660156 273.804688 468.589844 394.605469 468.589844 C 515.40625 468.589844 613.335938 370.660156 613.335938 249.859375 C 613.335938 129.058594 515.40625 31.128906 394.605469 31.128906 Z M 394.605469 31.128906 " clip-rule="nonzero"/></clipPath><clipPath id="3893036994"><path d="M 0.875 0.128906 L 438.335938 0.128906 L 438.335938 437.589844 L 0.875 437.589844 Z M 0.875 0.128906 " clip-rule="nonzero"/></clipPath><clipPath id="9ad00638f7"><path d="M 219.605469 0.128906 C 98.804688 0.128906 0.875 98.058594 0.875 218.859375 C 0.875 339.660156 98.804688 437.589844 219.605469 437.589844 C 340.40625 437.589844 438.335938 339.660156 438.335938 218.859375 C 438.335938 98.058594 340.40625 0.128906 219.605469 0.128906 Z M 219.605469 0.128906 " clip-rule="nonzero"/></clipPath><clipPath id="a2d77d847c"><rect x="0" width="439" y="0" height="438"/></clipPath><clipPath id="306f23dcb3"><path d="M 383 179 L 718 179 L 718 513 L 383 513 Z M 383 179 " clip-rule="nonzero"/></clipPath><clipPath id="ffd99f6c01"><path d="M 450.902344 132.875 L 763.921875 246.875 L 649.917969 559.898438 L 336.898438 445.894531 Z M 450.902344 132.875 " clip-rule="nonzero"/></clipPath><clipPath id="ffafd2c86c"><path d="M 607.410156 189.875 C 520.972656 158.394531 425.382812 202.945312 393.898438 289.382812 C 362.417969 375.820312 406.96875 471.414062 493.410156 502.894531 C 579.847656 534.378906 675.441406 489.824219 706.921875 403.386719 C 738.402344 316.949219 693.851562 221.355469 607.410156 189.875 Z M 607.410156 189.875 " clip-rule="nonzero"/></clipPath><clipPath id="2c0143259a"><path d="M 0 0 L 335 0 L 335 334 L 0 334 Z M 0 0 " clip-rule="nonzero"/></clipPath><clipPath id="ac6fd8a3eb"><path d="M 67.902344 -46.125 L 380.921875 67.875 L 266.917969 380.898438 L -46.101562 266.894531 Z M 67.902344 -46.125 " clip-rule="nonzero"/></clipPath><clipPath id="140d2f4fba"><path d="M 224.410156 10.875 C 137.972656 -20.605469 42.382812 23.945312 10.898438 110.382812 C -20.582031 196.820312 23.96875 292.414062 110.410156 323.894531 C 196.847656 355.378906 292.441406 310.824219 323.921875 224.386719 C 355.402344 137.949219 310.851562 42.355469 224.410156 10.875 Z M 224.410156 10.875 " clip-rule="nonzero"/></clipPath><clipPath id="96d9cecc0d"><rect x="0" width="335" y="0" height="334"/></clipPath><clipPath id="9df06755f0"><path d="M 388 384 L 658 384 L 658 654 L 388 654 Z M 388 384 " clip-rule="nonzero"/></clipPath><clipPath id="f49200461c"><path d="M 442.832031 346.386719 L 695.804688 438.519531 L 603.671875 691.492188 L 350.699219 599.359375 Z M 442.832031 346.386719 " clip-rule="nonzero"/></clipPath><clipPath id="33bb034507"><path d="M 569.320312 392.453125 C 499.460938 367.007812 422.207031 403.015625 396.765625 472.871094 C 371.324219 542.726562 407.328125 619.980469 477.183594 645.425781 C 547.042969 670.867188 624.296875 634.859375 649.738281 565.003906 C 675.179688 495.148438 639.175781 417.894531 569.320312 392.453125 Z M 569.320312 392.453125 " clip-rule="nonzero"/></clipPath><clipPath id="f83fcd7f0c"><path d="M 0 0 L 270 0 L 270 270 L 0 270 Z M 0 0 " clip-rule="nonzero"/></clipPath><clipPath id="5c12687f75"><path d="M 54.832031 -37.613281 L 307.804688 54.519531 L 215.671875 307.492188 L -37.300781 215.359375 Z M 54.832031 -37.613281 " clip-rule="nonzero"/></clipPath><clipPath id="f238f23298"><path d="M 181.320312 8.453125 C 111.460938 -16.992188 34.207031 19.015625 8.765625 88.871094 C -16.675781 158.726562 19.328125 235.980469 89.183594 261.425781 C 159.042969 286.867188 236.296875 250.859375 261.738281 181.003906 C 287.179688 111.148438 251.175781 33.894531 181.320312 8.453125 Z M 181.320312 8.453125 " clip-rule="nonzero"/></clipPath><clipPath id="cc37fb8482"><rect x="0" width="270" y="0" height="270"/></clipPath><clipPath id="62205a5b00"><path d="M 352 545 L 510 545 L 510 703 L 352 703 Z M 352 545 " clip-rule="nonzero"/></clipPath><clipPath id="60a48441b4"><path d="M 384.1875 523.796875 L 531.011719 577.269531 L 477.539062 724.09375 L 330.710938 670.621094 Z M 384.1875 523.796875 " clip-rule="nonzero"/></clipPath><clipPath id="90d6c08ea1"><path d="M 457.597656 550.535156 C 417.054688 535.765625 372.214844 556.664062 357.449219 597.207031 C 342.683594 637.753906 363.582031 682.589844 404.125 697.359375 C 444.667969 712.125 489.507812 691.226562 504.273438 650.683594 C 519.039062 610.136719 498.144531 565.300781 457.597656 550.535156 Z M 457.597656 550.535156 " clip-rule="nonzero"/></clipPath><clipPath id="2995e337bd"><path d="M 0 0 L 158 0 L 158 158 L 0 158 Z M 0 0 " clip-rule="nonzero"/></clipPath><clipPath id="84fda604ed"><path d="M 32.1875 -21.203125 L 179.011719 32.269531 L 125.539062 179.09375 L -21.289062 125.621094 Z M 32.1875 -21.203125 " clip-rule="nonzero"/></clipPath><clipPath id="c54ee90238"><path d="M 105.597656 5.535156 C 65.054688 -9.234375 20.214844 11.664062 5.449219 52.207031 C -9.316406 92.753906 11.582031 137.589844 52.125 152.359375 C 92.667969 167.125 137.507812 146.226562 152.273438 105.683594 C 167.039062 65.136719 146.144531 20.300781 105.597656 5.535156 Z M 105.597656 5.535156 " clip-rule="nonzero"/></clipPath><clipPath id="4a2ae10704"><rect x="0" width="158" y="0" height="158"/></clipPath><clipPath id="dada7922f7"><path d="M 299 606 L 402 606 L 402 709 L 299 709 Z M 299 606 " clip-rule="nonzero"/></clipPath><clipPath id="d00f34d424"><path d="M 320.214844 592.441406 L 416.105469 627.367188 L 381.179688 723.253906 L 285.292969 688.332031 Z M 320.214844 592.441406 " clip-rule="nonzero"/></clipPath><clipPath id="5fac3899b2"><path d="M 368.160156 609.90625 C 341.679688 600.261719 312.398438 613.910156 302.753906 640.386719 C 293.113281 666.867188 306.757812 696.148438 333.238281 705.792969 C 359.714844 715.4375 389 701.789062 398.644531 675.308594 C 408.285156 648.832031 394.640625 619.546875 368.160156 609.90625 Z M 368.160156 609.90625 " clip-rule="nonzero"/></clipPath><clipPath id="3d2d75cb60"><path d="M 0 0 L 103 0 L 103 103 L 0 103 Z M 0 0 " clip-rule="nonzero"/></clipPath><clipPath id="3abe5eddf3"><path d="M 21.214844 -13.558594 L 117.105469 21.367188 L 82.179688 117.253906 L -13.707031 82.332031 Z M 21.214844 -13.558594 " clip-rule="nonzero"/></clipPath><clipPath id="0af70f463d"><path d="M 69.160156 3.90625 C 42.679688 -5.738281 13.398438 7.910156 3.753906 34.386719 C -5.886719 60.867188 7.757812 90.148438 34.238281 99.792969 C 60.714844 109.4375 90 95.789062 99.644531 69.308594 C 109.285156 42.832031 95.640625 13.546875 69.160156 3.90625 Z M 69.160156 3.90625 " clip-rule="nonzero"/></clipPath><clipPath id="97a05f5bd0"><rect x="0" width="103" y="0" height="103"/></clipPath><clipPath id="0cb3e92191"><path d="M 258 632 L 328 632 L 328 702 L 258 702 Z M 258 632 " clip-rule="nonzero"/></clipPath><clipPath id="eb3eeabfed"><path d="M 272.554688 623.253906 L 336.898438 646.6875 L 313.464844 711.03125 L 249.121094 687.597656 Z M 272.554688 623.253906 " clip-rule="nonzero"/></clipPath><clipPath id="f7aafde728"><path d="M 304.726562 634.972656 C 286.960938 628.5 267.308594 637.65625 260.839844 655.425781 C 254.367188 673.191406 263.527344 692.84375 281.292969 699.3125 C 299.0625 705.785156 318.710938 696.625 325.183594 678.859375 C 331.652344 661.089844 322.496094 641.441406 304.726562 634.972656 Z M 304.726562 634.972656 " clip-rule="nonzero"/></clipPath><clipPath id="3862f9412d"><path d="M 0 0 L 70 0 L 70 70 L 0 70 Z M 0 0 " clip-rule="nonzero"/></clipPath><clipPath id="a0ee251a13"><path d="M 14.554688 -8.746094 L 78.898438 14.6875 L 55.464844 79.03125 L -8.878906 55.597656 Z M 14.554688 -8.746094 " clip-rule="nonzero"/></clipPath><clipPath id="e6dc34669b"><path d="M 46.726562 2.972656 C 28.960938 -3.5 9.308594 5.65625 2.839844 23.425781 C -3.632812 41.191406 5.527344 60.84375 23.292969 67.3125 C 41.0625 73.785156 60.710938 64.625 67.183594 46.859375 C 73.652344 29.089844 64.496094 9.441406 46.726562 2.972656 Z M 46.726562 2.972656 " clip-rule="nonzero"/></clipPath><clipPath id="b688416423"><rect x="0" width="70" y="0" height="70"/></clipPath><clipPath id="8e6edf8453"><path d="M 238 635 L 274 635 L 274 671 L 238 671 Z M 238 635 " clip-rule="nonzero"/></clipPath><clipPath id="ff58cb5b3f"><path d="M 245.769531 631.113281 L 277.941406 642.828125 L 266.222656 675 L 234.050781 663.285156 Z M 245.769531 631.113281 " clip-rule="nonzero"/></clipPath><clipPath id="c183201db0"><path d="M 261.855469 636.972656 C 252.96875 633.734375 243.144531 638.316406 239.910156 647.199219 C 236.675781 656.082031 241.253906 665.90625 250.136719 669.144531 C 259.019531 672.378906 268.84375 667.800781 272.082031 658.914062 C 275.316406 650.03125 270.738281 640.207031 261.855469 636.972656 Z M 261.855469 636.972656 " clip-rule="nonzero"/></clipPath><clipPath id="65dfb5a5e1"><path d="M 0 0 L 36 0 L 36 36 L 0 36 Z M 0 0 " clip-rule="nonzero"/></clipPath><clipPath id="b2850c5892"><path d="M 7.769531 -3.886719 L 39.941406 7.828125 L 28.222656 40 L -3.949219 28.285156 Z M 7.769531 -3.886719 " clip-rule="nonzero"/></clipPath><clipPath id="cceb838807"><path d="M 23.855469 1.972656 C 14.96875 -1.265625 5.144531 3.316406 1.910156 12.199219 C -1.324219 21.082031 3.253906 30.90625 12.136719 34.144531 C 21.019531 37.378906 30.84375 32.800781 34.082031 23.914062 C 37.316406 15.03125 32.738281 5.207031 23.855469 1.972656 Z M 23.855469 1.972656 " clip-rule="nonzero"/></clipPath><clipPath id="40b2690996"><rect x="0" width="36" y="0" height="36"/></clipPath></defs><g clip-path="url(#3ea24cd72b)"><g clip-path="url(#cf2c14db13)"><g transform="matrix(1, 0, 0, 1, 31, 31)"><g clip-path="url(#11b4e3e611)"><g clip-path="url(#a6738f22a0)"><g clip-path="url(#ccfa2e5a9e)"><path fill="#0097b2" d="M 0.128906 0.128906 L 687.871094 0.128906 L 687.871094 687.871094 L 0.128906 687.871094 Z M 0.128906 0.128906 " fill-opacity="1" fill-rule="nonzero"/></g></g></g></g></g></g><g clip-path="url(#61bb8e649e)"><g clip-path="url(#699cfdf98b)"><g transform="matrix(1, 0, 0, 1, 175, 31)"><g clip-path="url(#a2d77d847c)"><g clip-path="url(#3893036994)"><g clip-path="url(#9ad00638f7)"><path fill="#00bf63" d="M 0.875 0.128906 L 438.335938 0.128906 L 438.335938 437.589844 L 0.875 437.589844 Z M 0.875 0.128906 " fill-opacity="1" fill-rule="nonzero"/></g></g></g></g></g></g><g clip-path="url(#306f23dcb3)"><g clip-path="url(#ffd99f6c01)"><g clip-path="url(#ffafd2c86c)"><g transform="matrix(1, 0, 0, 1, 383, 179)"><g clip-path="url(#96d9cecc0d)"><g clip-path="url(#2c0143259a)"><g clip-path="url(#ac6fd8a3eb)"><g clip-path="url(#140d2f4fba)"><path fill="#5e17eb" d="M 67.902344 -46.125 L 380.921875 67.875 L 266.917969 380.898438 L -46.101562 266.894531 Z M 67.902344 -46.125 " fill-opacity="1" fill-rule="nonzero"/></g></g></g></g></g></g></g></g><g clip-path="url(#9df06755f0)"><g clip-path="url(#f49200461c)"><g clip-path="url(#33bb034507)"><g transform="matrix(1, 0, 0, 1, 388, 384)"><g clip-path="url(#cc37fb8482)"><g clip-path="url(#f83fcd7f0c)"><g clip-path="url(#5c12687f75)"><g clip-path="url(#f238f23298)"><path fill="#ff7a7a" d="M 54.832031 -37.613281 L 307.804688 54.519531 L 215.671875 307.492188 L -37.300781 215.359375 Z M 54.832031 -37.613281 " fill-opacity="1" fill-rule="nonzero"/></g></g></g></g></g></g></g></g><g clip-path="url(#62205a5b00)"><g clip-path="url(#60a48441b4)"><g clip-path="url(#90d6c08ea1)"><g transform="matrix(1, 0, 0, 1, 352, 545)"><g clip-path="url(#4a2ae10704)"><g clip-path="url(#2995e337bd)"><g clip-path="url(#84fda604ed)"><g clip-path="url(#c54ee90238)"><path fill="#ffde59" d="M 32.1875 -21.203125 L 179.011719 32.269531 L 125.539062 179.09375 L -21.289062 125.621094 Z M 32.1875 -21.203125 " fill-opacity="1" fill-rule="nonzero"/></g></g></g></g></g></g></g></g><g clip-path="url(#dada7922f7)"><g clip-path="url(#d00f34d424)"><g clip-path="url(#5fac3899b2)"><g transform="matrix(1, 0, 0, 1, 299, 606)"><g clip-path="url(#97a05f5bd0)"><g clip-path="url(#3d2d75cb60)"><g clip-path="url(#3abe5eddf3)"><g clip-path="url(#0af70f463d)"><path fill="#e2a9f1" d="M 21.214844 -13.558594 L 117.105469 21.367188 L 82.179688 117.253906 L -13.707031 82.332031 Z M 21.214844 -13.558594 " fill-opacity="1" fill-rule="nonzero"/></g></g></g></g></g></g></g></g><g clip-path="url(#0cb3e92191)"><g clip-path="url(#eb3eeabfed)"><g clip-path="url(#f7aafde728)"><g transform="matrix(1, 0, 0, 1, 258, 632)"><g clip-path="url(#b688416423)"><g clip-path="url(#3862f9412d)"><g clip-path="url(#a0ee251a13)"><g clip-path="url(#e6dc34669b)"><path fill="#c1ff72" d="M 14.554688 -8.746094 L 78.898438 14.6875 L 55.464844 79.03125 L -8.878906 55.597656 Z M 14.554688 -8.746094 " fill-opacity="1" fill-rule="nonzero"/></g></g></g></g></g></g></g></g><g clip-path="url(#8e6edf8453)"><g clip-path="url(#ff58cb5b3f)"><g clip-path="url(#c183201db0)"><g transform="matrix(1, 0, 0, 1, 238, 635)"><g clip-path="url(#40b2690996)"><g clip-path="url(#65dfb5a5e1)"><g clip-path="url(#b2850c5892)"><g clip-path="url(#cceb838807)"><path fill="#51efff" d="M 7.769531 -3.886719 L 39.941406 7.828125 L 28.222656 40 L -3.949219 28.285156 Z M 7.769531 -3.886719 " fill-opacity="1" fill-rule="nonzero"/></g></g></g></g></g></g></g></g></svg>