<svg xmlns="http://www.w3.org/2000/svg" xmlns:xlink="http://www.w3.org/1999/xlink" width="1000" zoomAndPan="magnify" viewBox="0 0 750 749.999995" height="1000" preserveAspectRatio="xMidYMid meet" version="1.0"><defs><clipPath id="121852c428"><path d="M 103.925781 639.308594 L 642.765625 639.308594 L 642.765625 713.46875 L 103.925781 713.46875 Z M 103.925781 639.308594 " clip-rule="nonzero"/></clipPath><clipPath id="d9f53b6cb9"><path d="M 103.925781 705.96875 L 103.925781 646.808594 C 103.925781 644.816406 104.714844 642.910156 106.121094 641.503906 C 107.527344 640.097656 109.4375 639.308594 111.425781 639.308594 L 635.210938 639.308594 C 637.199219 639.308594 639.105469 640.097656 640.511719 641.503906 C 641.917969 642.910156 642.710938 644.816406 642.710938 646.808594 L 642.710938 705.96875 C 642.710938 707.957031 641.917969 709.867188 640.511719 711.273438 C 639.105469 712.679688 637.199219 713.46875 635.210938 713.46875 L 111.425781 713.46875 C 109.4375 713.46875 107.527344 712.679688 106.121094 711.273438 C 104.714844 709.867188 103.925781 707.957031 103.925781 705.96875 Z M 103.925781 705.96875 " clip-rule="nonzero"/></clipPath><clipPath id="dda8b56fe2"><path d="M 0.925781 0.308594 L 539.71875 0.308594 L 539.71875 74.46875 L 0.925781 74.46875 Z M 0.925781 0.308594 " clip-rule="nonzero"/></clipPath><clipPath id="41c15df03d"><path d="M 0.925781 66.96875 L 0.925781 7.808594 C 0.925781 5.816406 1.714844 3.910156 3.121094 2.503906 C 4.527344 1.097656 6.4375 0.308594 8.425781 0.308594 L 532.210938 0.308594 C 534.199219 0.308594 536.105469 1.097656 537.511719 2.503906 C 538.917969 3.910156 539.710938 5.816406 539.710938 7.808594 L 539.710938 66.96875 C 539.710938 68.957031 538.917969 70.867188 537.511719 72.273438 C 536.105469 73.679688 534.199219 74.46875 532.210938 74.46875 L 8.425781 74.46875 C 6.4375 74.46875 4.527344 73.679688 3.121094 72.273438 C 1.714844 70.867188 0.925781 68.957031 0.925781 66.96875 Z M 0.925781 66.96875 " clip-rule="nonzero"/></clipPath><clipPath id="3c66e58e1e"><rect x="0" width="540" y="0" height="75"/></clipPath><clipPath id="bef3b025c7"><path d="M 106.886719 536.089844 L 642.851562 536.089844 L 642.851562 613.085938 L 106.886719 613.085938 Z M 106.886719 536.089844 " clip-rule="nonzero"/></clipPath><clipPath id="61b8b04b98"><path d="M 106.886719 605.585938 L 106.886719 543.589844 C 106.886719 541.601562 107.679688 539.691406 109.085938 538.285156 C 110.492188 536.878906 112.398438 536.089844 114.386719 536.089844 L 635.214844 536.089844 C 637.203125 536.089844 639.109375 536.878906 640.515625 538.285156 C 641.921875 539.691406 642.714844 541.601562 642.714844 543.589844 L 642.714844 605.585938 C 642.714844 607.574219 641.921875 609.480469 640.515625 610.890625 C 639.109375 612.296875 637.203125 613.085938 635.214844 613.085938 L 114.386719 613.085938 C 112.398438 613.085938 110.492188 612.296875 109.085938 610.890625 C 107.679688 609.480469 106.886719 607.574219 106.886719 605.585938 Z M 106.886719 605.585938 " clip-rule="nonzero"/></clipPath><clipPath id="db5bb88bd4"><path d="M 0.886719 0.0898438 L 536.71875 0.0898438 L 536.71875 77.085938 L 0.886719 77.085938 Z M 0.886719 0.0898438 " clip-rule="nonzero"/></clipPath><clipPath id="bb73f310aa"><path d="M 0.886719 69.585938 L 0.886719 7.589844 C 0.886719 5.601562 1.679688 3.691406 3.085938 2.285156 C 4.492188 0.878906 6.398438 0.0898438 8.386719 0.0898438 L 529.214844 0.0898438 C 531.203125 0.0898438 533.109375 0.878906 534.515625 2.285156 C 535.921875 3.691406 536.714844 5.601562 536.714844 7.589844 L 536.714844 69.585938 C 536.714844 71.574219 535.921875 73.480469 534.515625 74.890625 C 533.109375 76.296875 531.203125 77.085938 529.214844 77.085938 L 8.386719 77.085938 C 6.398438 77.085938 4.492188 76.296875 3.085938 74.890625 C 1.679688 73.480469 0.886719 71.574219 0.886719 69.585938 Z M 0.886719 69.585938 " clip-rule="nonzero"/></clipPath><clipPath id="c56710abc9"><rect x="0" width="537" y="0" height="78"/></clipPath><clipPath id="187ce9a305"><path d="M 106.886719 432.886719 L 642.851562 432.886719 L 642.851562 509.882812 L 106.886719 509.882812 Z M 106.886719 432.886719 " clip-rule="nonzero"/></clipPath><clipPath id="0134bfe462"><path d="M 106.886719 502.382812 L 106.886719 440.386719 C 106.886719 438.398438 107.679688 436.488281 109.085938 435.082031 C 110.492188 433.675781 112.398438 432.886719 114.386719 432.886719 L 635.214844 432.886719 C 637.203125 432.886719 639.109375 433.675781 640.515625 435.082031 C 641.921875 436.488281 642.714844 438.398438 642.714844 440.386719 L 642.714844 502.382812 C 642.714844 504.371094 641.921875 506.277344 640.515625 507.6875 C 639.109375 509.09375 637.203125 509.882812 635.214844 509.882812 L 114.386719 509.882812 C 112.398438 509.882812 110.492188 509.09375 109.085938 507.6875 C 107.679688 506.277344 106.886719 504.371094 106.886719 502.382812 Z M 106.886719 502.382812 " clip-rule="nonzero"/></clipPath><clipPath id="cb1242d453"><path d="M 0.886719 0.886719 L 536.71875 0.886719 L 536.71875 77.882812 L 0.886719 77.882812 Z M 0.886719 0.886719 " clip-rule="nonzero"/></clipPath><clipPath id="115dbaad0f"><path d="M 0.886719 70.382812 L 0.886719 8.386719 C 0.886719 6.398438 1.679688 4.488281 3.085938 3.082031 C 4.492188 1.675781 6.398438 0.886719 8.386719 0.886719 L 529.214844 0.886719 C 531.203125 0.886719 533.109375 1.675781 534.515625 3.082031 C 535.921875 4.488281 536.714844 6.398438 536.714844 8.386719 L 536.714844 70.382812 C 536.714844 72.371094 535.921875 74.277344 534.515625 75.6875 C 533.109375 77.09375 531.203125 77.882812 529.214844 77.882812 L 8.386719 77.882812 C 6.398438 77.882812 4.492188 77.09375 3.085938 75.6875 C 1.679688 74.277344 0.886719 72.371094 0.886719 70.382812 Z M 0.886719 70.382812 " clip-rule="nonzero"/></clipPath><clipPath id="5becb406d8"><rect x="0" width="537" y="0" height="78"/></clipPath><clipPath id="9683c06022"><path d="M 106.886719 333.253906 L 642.738281 333.253906 L 642.738281 406.691406 L 106.886719 406.691406 Z M 106.886719 333.253906 " clip-rule="nonzero"/></clipPath><clipPath id="b355a78499"><path d="M 106.886719 399.191406 L 106.886719 340.753906 C 106.886719 338.765625 107.675781 336.859375 109.085938 335.453125 C 110.492188 334.042969 112.398438 333.253906 114.386719 333.253906 L 635.210938 333.253906 C 637.203125 333.253906 639.109375 334.042969 640.515625 335.453125 C 641.921875 336.859375 642.710938 338.765625 642.710938 340.753906 L 642.710938 399.191406 C 642.710938 401.179688 641.921875 403.085938 640.515625 404.492188 C 639.109375 405.898438 637.203125 406.691406 635.210938 406.691406 L 114.386719 406.691406 C 112.398438 406.691406 110.492188 405.898438 109.085938 404.492188 C 107.675781 403.085938 106.886719 401.179688 106.886719 399.191406 Z M 106.886719 399.191406 " clip-rule="nonzero"/></clipPath><clipPath id="c7a5d5b46f"><path d="M 0.886719 0.253906 L 536.71875 0.253906 L 536.71875 73.691406 L 0.886719 73.691406 Z M 0.886719 0.253906 " clip-rule="nonzero"/></clipPath><clipPath id="bfd235b635"><path d="M 0.886719 66.191406 L 0.886719 7.753906 C 0.886719 5.765625 1.675781 3.859375 3.085938 2.453125 C 4.492188 1.042969 6.398438 0.253906 8.386719 0.253906 L 529.210938 0.253906 C 531.203125 0.253906 533.109375 1.042969 534.515625 2.453125 C 535.921875 3.859375 536.710938 5.765625 536.710938 7.753906 L 536.710938 66.191406 C 536.710938 68.179688 535.921875 70.085938 534.515625 71.492188 C 533.109375 72.898438 531.203125 73.691406 529.210938 73.691406 L 8.386719 73.691406 C 6.398438 73.691406 4.492188 72.898438 3.085938 71.492188 C 1.675781 70.085938 0.886719 68.179688 0.886719 66.191406 Z M 0.886719 66.191406 " clip-rule="nonzero"/></clipPath><clipPath id="fa272a6011"><rect x="0" width="537" y="0" height="74"/></clipPath><clipPath id="60dfc7a6d9"><path d="M 103.925781 233.601562 L 642.929688 233.601562 L 642.929688 307.039062 L 103.925781 307.039062 Z M 103.925781 233.601562 " clip-rule="nonzero"/></clipPath><clipPath id="37d8d325ac"><path d="M 103.925781 299.539062 L 103.925781 241.101562 C 103.925781 239.113281 104.714844 237.207031 106.121094 235.800781 C 107.527344 234.394531 109.4375 233.601562 111.425781 233.601562 L 635.210938 233.601562 C 637.199219 233.601562 639.105469 234.394531 640.511719 235.800781 C 641.917969 237.207031 642.710938 239.113281 642.710938 241.101562 L 642.710938 299.539062 C 642.710938 301.527344 641.917969 303.433594 640.511719 304.839844 C 639.105469 306.246094 637.199219 307.039062 635.210938 307.039062 L 111.425781 307.039062 C 109.4375 307.039062 107.527344 306.246094 106.121094 304.839844 C 104.714844 303.433594 103.925781 301.527344 103.925781 299.539062 Z M 103.925781 299.539062 " clip-rule="nonzero"/></clipPath><clipPath id="0891f86589"><path d="M 0.925781 0.601562 L 539.71875 0.601562 L 539.71875 74.039062 L 0.925781 74.039062 Z M 0.925781 0.601562 " clip-rule="nonzero"/></clipPath><clipPath id="58758a3eb9"><path d="M 0.925781 66.539062 L 0.925781 8.101562 C 0.925781 6.113281 1.714844 4.207031 3.121094 2.800781 C 4.527344 1.394531 6.4375 0.601562 8.425781 0.601562 L 532.210938 0.601562 C 534.199219 0.601562 536.105469 1.394531 537.511719 2.800781 C 538.917969 4.207031 539.710938 6.113281 539.710938 8.101562 L 539.710938 66.539062 C 539.710938 68.527344 538.917969 70.433594 537.511719 71.839844 C 536.105469 73.246094 534.199219 74.039062 532.210938 74.039062 L 8.425781 74.039062 C 6.4375 74.039062 4.527344 73.246094 3.121094 71.839844 C 1.714844 70.433594 0.925781 68.527344 0.925781 66.539062 Z M 0.925781 66.539062 " clip-rule="nonzero"/></clipPath><clipPath id="9a2b1cfe71"><rect x="0" width="540" y="0" height="75"/></clipPath><clipPath id="1e33740ce0"><path d="M 103.925781 133.972656 L 642.929688 133.972656 L 642.929688 207.40625 L 103.925781 207.40625 Z M 103.925781 133.972656 " clip-rule="nonzero"/></clipPath><clipPath id="aa7cd20ed1"><path d="M 103.925781 199.90625 L 103.925781 141.472656 C 103.925781 139.484375 104.714844 137.574219 106.121094 136.167969 C 107.527344 134.761719 109.4375 133.972656 111.425781 133.972656 L 635.210938 133.972656 C 637.199219 133.972656 639.105469 134.761719 640.511719 136.167969 C 641.917969 137.574219 642.710938 139.484375 642.710938 141.472656 L 642.710938 199.90625 C 642.710938 201.898438 641.917969 203.804688 640.511719 205.210938 C 639.105469 206.617188 637.199219 207.40625 635.210938 207.40625 L 111.425781 207.40625 C 109.4375 207.40625 107.527344 206.617188 106.121094 205.210938 C 104.714844 203.804688 103.925781 201.898438 103.925781 199.90625 Z M 103.925781 199.90625 " clip-rule="nonzero"/></clipPath><clipPath id="357a51724b"><path d="M 0.925781 0.972656 L 539.71875 0.972656 L 539.71875 74.40625 L 0.925781 74.40625 Z M 0.925781 0.972656 " clip-rule="nonzero"/></clipPath><clipPath id="18a51dde50"><path d="M 0.925781 66.90625 L 0.925781 8.472656 C 0.925781 6.484375 1.714844 4.574219 3.121094 3.167969 C 4.527344 1.761719 6.4375 0.972656 8.425781 0.972656 L 532.210938 0.972656 C 534.199219 0.972656 536.105469 1.761719 537.511719 3.167969 C 538.917969 4.574219 539.710938 6.484375 539.710938 8.472656 L 539.710938 66.90625 C 539.710938 68.898438 538.917969 70.804688 537.511719 72.210938 C 536.105469 73.617188 534.199219 74.40625 532.210938 74.40625 L 8.425781 74.40625 C 6.4375 74.40625 4.527344 73.617188 3.121094 72.210938 C 1.714844 70.804688 0.925781 68.898438 0.925781 66.90625 Z M 0.925781 66.90625 " clip-rule="nonzero"/></clipPath><clipPath id="9b4ea63152"><rect x="0" width="540" y="0" height="75"/></clipPath><clipPath id="82fa87a12b"><path d="M 106.886719 34.339844 L 642.738281 34.339844 L 642.738281 107.773438 L 106.886719 107.773438 Z M 106.886719 34.339844 " clip-rule="nonzero"/></clipPath><clipPath id="2c9347e41b"><path d="M 106.886719 100.273438 L 106.886719 41.839844 C 106.886719 39.847656 107.675781 37.941406 109.085938 36.535156 C 110.492188 35.128906 112.398438 34.339844 114.386719 34.339844 L 635.210938 34.339844 C 637.203125 34.339844 639.109375 35.128906 640.515625 36.535156 C 641.921875 37.941406 642.710938 39.847656 642.710938 41.839844 L 642.710938 100.273438 C 642.710938 102.261719 641.921875 104.171875 640.515625 105.578125 C 639.109375 106.984375 637.203125 107.773438 635.210938 107.773438 L 114.386719 107.773438 C 112.398438 107.773438 110.492188 106.984375 109.085938 105.578125 C 107.675781 104.171875 106.886719 102.261719 106.886719 100.273438 Z M 106.886719 100.273438 " clip-rule="nonzero"/></clipPath><clipPath id="0902da6cc9"><path d="M 0.886719 0.339844 L 536.71875 0.339844 L 536.71875 73.773438 L 0.886719 73.773438 Z M 0.886719 0.339844 " clip-rule="nonzero"/></clipPath><clipPath id="a24b5ec8b8"><path d="M 0.886719 66.273438 L 0.886719 7.839844 C 0.886719 5.847656 1.675781 3.941406 3.085938 2.535156 C 4.492188 1.128906 6.398438 0.339844 8.386719 0.339844 L 529.210938 0.339844 C 531.203125 0.339844 533.109375 1.128906 534.515625 2.535156 C 535.921875 3.941406 536.710938 5.847656 536.710938 7.839844 L 536.710938 66.273438 C 536.710938 68.261719 535.921875 70.171875 534.515625 71.578125 C 533.109375 72.984375 531.203125 73.773438 529.210938 73.773438 L 8.386719 73.773438 C 6.398438 73.773438 4.492188 72.984375 3.085938 71.578125 C 1.675781 70.171875 0.886719 68.261719 0.886719 66.273438 Z M 0.886719 66.273438 " clip-rule="nonzero"/></clipPath><clipPath id="cab562c202"><rect x="0" width="537" y="0" height="74"/></clipPath></defs><g clip-path="url(#121852c428)"><g clip-path="url(#d9f53b6cb9)"><g transform="matrix(1, 0, 0, 1, 103, 639)"><g clip-path="url(#3c66e58e1e)"><g clip-path="url(#dda8b56fe2)"><g clip-path="url(#41c15df03d)"><path fill="#0097b2" d="M 0.925781 74.46875 L 0.925781 0.308594 L 539.765625 0.308594 L 539.765625 74.46875 Z M 0.925781 74.46875 " fill-opacity="1" fill-rule="nonzero"/></g></g></g></g></g></g><g clip-path="url(#bef3b025c7)"><g clip-path="url(#61b8b04b98)"><g transform="matrix(1, 0, 0, 1, 106, 536)"><g clip-path="url(#c56710abc9)"><g clip-path="url(#db5bb88bd4)"><g clip-path="url(#bb73f310aa)"><path fill="#00bf63" d="M 0.886719 77.085938 L 0.886719 0.0898438 L 536.851562 0.0898438 L 536.851562 77.085938 Z M 0.886719 77.085938 " fill-opacity="1" fill-rule="nonzero"/></g></g></g></g></g></g><g clip-path="url(#187ce9a305)"><g clip-path="url(#0134bfe462)"><g transform="matrix(1, 0, 0, 1, 106, 432)"><g clip-path="url(#5becb406d8)"><g clip-path="url(#cb1242d453)"><g clip-path="url(#115dbaad0f)"><path fill="#ecc4ff" d="M 0.886719 77.882812 L 0.886719 0.886719 L 536.851562 0.886719 L 536.851562 77.882812 Z M 0.886719 77.882812 " fill-opacity="1" fill-rule="nonzero"/></g></g></g></g></g></g><g clip-path="url(#9683c06022)"><g clip-path="url(#b355a78499)"><g transform="matrix(1, 0, 0, 1, 106, 333)"><g clip-path="url(#fa272a6011)"><g clip-path="url(#c7a5d5b46f)"><g clip-path="url(#bfd235b635)"><path fill="#5e17eb" d="M 0.886719 73.691406 L 0.886719 0.253906 L 536.738281 0.253906 L 536.738281 73.691406 Z M 0.886719 73.691406 " fill-opacity="1" fill-rule="nonzero"/></g></g></g></g></g></g><g clip-path="url(#60dfc7a6d9)"><g clip-path="url(#37d8d325ac)"><g transform="matrix(1, 0, 0, 1, 103, 233)"><g clip-path="url(#9a2b1cfe71)"><g clip-path="url(#0891f86589)"><g clip-path="url(#58758a3eb9)"><path fill="#ff5757" d="M 0.925781 74.039062 L 0.925781 0.601562 L 539.644531 0.601562 L 539.644531 74.039062 Z M 0.925781 74.039062 " fill-opacity="1" fill-rule="nonzero"/></g></g></g></g></g></g><g clip-path="url(#1e33740ce0)"><g clip-path="url(#aa7cd20ed1)"><g transform="matrix(1, 0, 0, 1, 103, 133)"><g clip-path="url(#9b4ea63152)"><g clip-path="url(#357a51724b)"><g clip-path="url(#18a51dde50)"><path fill="#ffde59" d="M 0.925781 74.40625 L 0.925781 0.972656 L 539.644531 0.972656 L 539.644531 74.40625 Z M 0.925781 74.40625 " fill-opacity="1" fill-rule="nonzero"/></g></g></g></g></g></g><g clip-path="url(#82fa87a12b)"><g clip-path="url(#2c9347e41b)"><g transform="matrix(1, 0, 0, 1, 106, 34)"><g clip-path="url(#cab562c202)"><g clip-path="url(#0902da6cc9)"><g clip-path="url(#a24b5ec8b8)"><path fill="#ff914d" d="M 0.886719 73.773438 L 0.886719 0.339844 L 536.738281 0.339844 L 536.738281 73.773438 Z M 0.886719 73.773438 " fill-opacity="1" fill-rule="nonzero"/></g></g></g></g></g></g><path stroke-linecap="round" transform="matrix(0.465913, -0.587728, 0.587728, 0.465913, 100.399942, 710.676897)" fill="none" stroke-linejoin="miter" d="M 6.001442 6.000326 L 1163.018901 6.000882 " stroke="#ffffff" stroke-width="12" stroke-opacity="1" stroke-miterlimit="4"/><path stroke-linecap="round" transform="matrix(0.468052, -0.586027, 0.586027, 0.468052, 103.367942, 610.279742)" fill="none" stroke-linejoin="miter" d="M 6.000805 5.997637 L 995.12365 5.99829 " stroke="#ffffff" stroke-width="12" stroke-opacity="1" stroke-miterlimit="4"/><path stroke-linecap="round" transform="matrix(0.471086, -0.583591, 0.583591, 0.471086, 103.382342, 507.057763)" fill="none" stroke-linejoin="miter" d="M 6.000368 6.000621 L 815.78295 5.999574 " stroke="#ffffff" stroke-width="12" stroke-opacity="1" stroke-miterlimit="4"/><path stroke-linecap="round" transform="matrix(0.476311, -0.579334, 0.579334, 0.476311, 103.409213, 403.838064)" fill="none" stroke-linejoin="miter" d="M 6.000458 5.998078 L 650.426192 6.00141 " stroke="#ffffff" stroke-width="12" stroke-opacity="1" stroke-miterlimit="4"/><path stroke-linecap="round" transform="matrix(0.476422, -0.579243, 0.579243, 0.476422, 100.451379, 304.183277)" fill="none" stroke-linejoin="miter" d="M 5.999765 5.999831 L 478.484346 5.9992 " stroke="#ffffff" stroke-width="12" stroke-opacity="1" stroke-miterlimit="4"/><path stroke-linecap="round" transform="matrix(0.476415, -0.579248, 0.579248, 0.476415, 97.882095, 208.956646)" fill="none" stroke-linejoin="miter" d="M 5.998753 5.9989 L 314.091223 6.001275 " stroke="#ffffff" stroke-width="12" stroke-opacity="1" stroke-miterlimit="4"/><path stroke-linecap="round" transform="matrix(0.472339, -0.582576, 0.582576, 0.472339, 103.389079, 106.70239)" fill="none" stroke-linejoin="miter" d="M 6.002121 5.998581 L 136.699598 5.999952 " stroke="#ffffff" stroke-width="12" stroke-opacity="1" stroke-miterlimit="4"/><path stroke-linecap="round" transform="matrix(0.468052, -0.586027, 0.586027, 0.468052, 166.960951, 720.767985)" fill="none" stroke-linejoin="miter" d="M 6.001382 5.998442 L 995.124227 5.999095 " stroke="#ffffff" stroke-width="12" stroke-opacity="1" stroke-miterlimit="4"/><path stroke-linecap="round" transform="matrix(0.472842, -0.582169, 0.582169, 0.472842, 238.554689, 720.738681)" fill="none" stroke-linejoin="miter" d="M 5.999077 5.997416 L 853.779893 5.999472 " stroke="#ffffff" stroke-width="12" stroke-opacity="1" stroke-miterlimit="4"/><path stroke-linecap="round" transform="matrix(0.47855, -0.577485, 0.577485, 0.47855, 314.202643, 720.705873)" fill="none" stroke-linejoin="miter" d="M 5.999128 6.001077 L 682.745304 5.998159 " stroke="#ffffff" stroke-width="12" stroke-opacity="1" stroke-miterlimit="4"/><path stroke-linecap="round" transform="matrix(0.473847, -0.581351, 0.581351, 0.473847, 402.610267, 720.734817)" fill="none" stroke-linejoin="miter" d="M 5.999909 5.999991 L 489.52511 6.000211 " stroke="#ffffff" stroke-width="12" stroke-opacity="1" stroke-miterlimit="4"/><path stroke-linecap="round" transform="matrix(0.471859, -0.582966, 0.582966, 0.471859, 483.955419, 720.744777)" fill="none" stroke-linejoin="miter" d="M 6.00067 6.000811 L 323.029649 6.002328 " stroke="#ffffff" stroke-width="12" stroke-opacity="1" stroke-miterlimit="4"/><path stroke-linecap="round" transform="matrix(0.466891, -0.586952, 0.586952, 0.466891, 571.940951, 718.553001)" fill="none" stroke-linejoin="miter" d="M 6.001975 6.001181 L 138.033575 6.001369 " stroke="#ffffff" stroke-width="12" stroke-opacity="1" stroke-miterlimit="4"/></svg>