<svg xmlns="http://www.w3.org/2000/svg" xmlns:xlink="http://www.w3.org/1999/xlink" zoomAndPan="magnify" viewBox="0 0 750 749.999995" preserveAspectRatio="xMidYMid meet" version="1.0"><defs><clipPath id="arch-6ea18de110"><path d="M 37 37 L 707 37 L 707 385 L 37 385 Z M 37 37 " clip-rule="nonzero"/></clipPath><clipPath id="arch-2e80e525ba"><path d="M 44 31.035156 L 713.792969 44.132812 L 707.128906 385.023438 L 37.332031 371.925781 Z M 44 31.035156 " clip-rule="nonzero"/></clipPath><clipPath id="arch-d066d26c1d"><path d="M 706 385 C 709.632812 199.324219 560.441406 41.132812 378.332031 37.570312 C 196.226562 34.011719 40.964844 186.246094 37.332031 371.925781 Z M 706 385 " clip-rule="nonzero"/></clipPath><clipPath id="arch-58196bba47"><path d="M 0.199219 0 L 670 0 L 670 348 L 0.199219 348 Z M 0.199219 0 " clip-rule="nonzero"/></clipPath><clipPath id="arch-b75048536a"><path d="M 7 -5.964844 L 676.792969 7.132812 L 670.128906 348.023438 L 0.332031 334.925781 Z M 7 -5.964844 " clip-rule="nonzero"/></clipPath><clipPath id="arch-0663ed4aee"><path d="M 669 348 C 672.632812 162.324219 523.441406 4.132812 341.332031 0.570312 C 159.226562 -2.988281 3.964844 149.246094 0.332031 334.925781 Z M 669 348 " clip-rule="nonzero"/></clipPath><clipPath id="arch-7232278f5d"><rect x="0" width="670" y="0" height="348"/></clipPath><clipPath id="arch-e3ac83f6c7"><path d="M 63 378 L 687 378 L 687 697 L 63 697 Z M 63 378 " clip-rule="nonzero"/></clipPath><clipPath id="arch-35b5a16769"><path d="M 63.8125 378.230469 L 368.234375 73.808594 L 686.929688 392.5 L 382.507812 696.925781 Z M 63.8125 378.230469 " clip-rule="nonzero"/></clipPath><clipPath id="arch-00976ef8fc"><path d="M 686.191406 391.761719 L 381.765625 696.1875 L 63.8125 378.230469 Z M 686.191406 391.761719 " clip-rule="nonzero"/></clipPath><clipPath id="arch-12bb58f16d"><path d="M 0.601562 0 L 623 0 L 623 318 L 0.601562 318 Z M 0.601562 0 " clip-rule="nonzero"/></clipPath><clipPath id="arch-83af331dd7"><path d="M 0.8125 0.230469 L 305.234375 -304.191406 L 623.929688 14.5 L 319.507812 318.925781 Z M 0.8125 0.230469 " clip-rule="nonzero"/></clipPath><clipPath id="arch-c403f9c014"><path d="M 623.191406 13.761719 L 318.765625 318.1875 L 0.8125 0.230469 Z M 623.191406 13.761719 " clip-rule="nonzero"/></clipPath><clipPath id="arch-11c7da044e"><rect x="0" width="624" y="0" height="319"/></clipPath><clipPath id="arch-71d5700b98"><path d="M 61 60 L 687 60 L 687 385 L 61 385 Z M 61 60 " clip-rule="nonzero"/></clipPath><clipPath id="arch-f65500bb7b"><path d="M 68.207031 54.652344 L 693.3125 66.875 L 687.089844 385.023438 L 61.984375 372.796875 Z M 68.207031 54.652344 " clip-rule="nonzero"/></clipPath><clipPath id="arch-129ac4a65c"><path d="M 686.039062 385 C 689.429688 211.710938 550.191406 64.078125 380.234375 60.753906 C 210.277344 57.429688 65.375 199.507812 61.984375 372.796875 Z M 686.039062 385 " clip-rule="nonzero"/></clipPath><clipPath id="arch-585447bfb4"><path d="M 0.921875 0 L 626 0 L 626 325 L 0.921875 325 Z M 0.921875 0 " clip-rule="nonzero"/></clipPath><clipPath id="arch-2cb430d199"><path d="M 7.207031 -5.347656 L 632.3125 6.875 L 626.089844 325.023438 L 0.984375 312.796875 Z M 7.207031 -5.347656 " clip-rule="nonzero"/></clipPath><clipPath id="arch-8bbcb57ab0"><path d="M 625.039062 325 C 628.429688 151.710938 489.191406 4.078125 319.234375 0.753906 C 149.277344 -2.570312 4.375 139.507812 0.984375 312.796875 Z M 625.039062 325 " clip-rule="nonzero"/></clipPath><clipPath id="arch-7c164d14a0"><rect x="0" width="626" y="0" height="325"/></clipPath><clipPath id="arch-f6c1cdcd13"><path d="M 304.117188 146.820312 L 450.132812 146.820312 L 450.132812 292.832031 L 304.117188 292.832031 Z M 304.117188 146.820312 " clip-rule="nonzero"/></clipPath><clipPath id="arch-3a6cf53bb6"><path d="M 377.125 146.820312 C 336.804688 146.820312 304.117188 179.503906 304.117188 219.828125 C 304.117188 260.148438 336.804688 292.832031 377.125 292.832031 C 417.445312 292.832031 450.132812 260.148438 450.132812 219.828125 C 450.132812 179.503906 417.445312 146.820312 377.125 146.820312 Z M 377.125 146.820312 " clip-rule="nonzero"/></clipPath><clipPath id="arch-9428d6f47d"><path d="M 0.117188 0.820312 L 146.132812 0.820312 L 146.132812 146.832031 L 0.117188 146.832031 Z M 0.117188 0.820312 " clip-rule="nonzero"/></clipPath><clipPath id="arch-b25cfe4a6b"><path d="M 73.125 0.820312 C 32.804688 0.820312 0.117188 33.503906 0.117188 73.828125 C 0.117188 114.148438 32.804688 146.832031 73.125 146.832031 C 113.445312 146.832031 146.132812 114.148438 146.132812 73.828125 C 146.132812 33.503906 113.445312 0.820312 73.125 0.820312 Z M 73.125 0.820312 " clip-rule="nonzero"/></clipPath><clipPath id="arch-5f03d4b3ad"><rect x="0" width="147" y="0" height="147"/></clipPath><clipPath id="arch-af15d6deac"><path d="M 385 394 L 708 394 L 708 717 L 385 717 Z M 385 394 " clip-rule="nonzero"/></clipPath><clipPath id="arch-a048031b3d"><path d="M 690.113281 394.4375 L 707.800781 412.125 L 403.125 716.804688 L 385.4375 699.117188 Z M 690.113281 394.4375 " clip-rule="nonzero"/></clipPath><clipPath id="arch-80efbda0d0"><path d="M 0.199219 0.320312 L 323 0.320312 L 323 322.878906 L 0.199219 322.878906 Z M 0.199219 0.320312 " clip-rule="nonzero"/></clipPath><clipPath id="arch-fb61cc4f07"><path d="M 305.113281 0.4375 L 322.800781 18.125 L 18.125 322.804688 L 0.4375 305.117188 Z M 305.113281 0.4375 " clip-rule="nonzero"/></clipPath><clipPath id="arch-e52161d1cb"><rect x="0" width="323" y="0" height="323"/></clipPath><clipPath id="arch-c8da5f30f1"><path d="M 42 381 L 378 381 L 378 717 L 42 717 Z M 42 381 " clip-rule="nonzero"/></clipPath><clipPath id="arch-1a18391483"><path d="M 42.519531 399.296875 L 60.203125 381.609375 L 377.707031 699.113281 L 360.019531 716.800781 Z M 42.519531 399.296875 " clip-rule="nonzero"/></clipPath><clipPath id="arch-b63183bae6"><path d="M 0.480469 0.601562 L 335.761719 0.601562 L 335.761719 335.878906 L 0.480469 335.878906 Z M 0.480469 0.601562 " clip-rule="nonzero"/></clipPath><clipPath id="arch-52385a3a3c"><path d="M 0.519531 18.296875 L 18.203125 0.609375 L 335.707031 318.113281 L 318.019531 335.800781 Z M 0.519531 18.296875 " clip-rule="nonzero"/></clipPath><clipPath id="arch-e5d7c67fd8"><rect x="0" width="336" y="0" height="336"/></clipPath><clipPath id="arch-ef8d62af53"><path d="M 171.316406 416.332031 L 372.492188 416.332031 L 372.492188 626.9375 L 171.316406 626.9375 Z M 171.316406 416.332031 " clip-rule="nonzero"/></clipPath><clipPath id="arch-1b7915788e"><path d="M 171.316406 416.820312 L 372.492188 416.820312 L 372.492188 626.9375 Z M 171.316406 416.820312 " clip-rule="nonzero"/></clipPath><clipPath id="arch-f08dcc7435"><path d="M 0.316406 1 L 201.492188 1 L 201.492188 210.9375 L 0.316406 210.9375 Z M 0.316406 1 " clip-rule="nonzero"/></clipPath><clipPath id="arch-a4216677f9"><path d="M 0.316406 0.820312 L 201.492188 0.820312 L 201.492188 210.9375 Z M 0.316406 0.820312 " clip-rule="nonzero"/></clipPath><clipPath id="arch-6787dd1b9b"><rect x="0" width="202" y="0" height="211"/></clipPath><clipPath id="arch-8837f4d9a3"><path d="M 385.4375 416.820312 L 595.554688 416.820312 L 595.554688 626.941406 L 385.4375 626.941406 Z M 385.4375 416.820312 " clip-rule="nonzero"/></clipPath><clipPath id="arch-a3a4f2b6a3"><path d="M 385.4375 626.941406 L 385.4375 416.820312 L 595.554688 416.820312 Z M 385.4375 626.941406 " clip-rule="nonzero"/></clipPath><clipPath id="arch-6dde546927"><path d="M 0.4375 0.820312 L 210.554688 0.820312 L 210.554688 210.941406 L 0.4375 210.941406 Z M 0.4375 0.820312 " clip-rule="nonzero"/></clipPath><clipPath id="arch-505b971264"><path d="M 0.4375 210.941406 L 0.4375 0.820312 L 210.554688 0.820312 Z M 0.4375 210.941406 " clip-rule="nonzero"/></clipPath><clipPath id="arch-1deafbeec2"><rect x="0" width="211" y="0" height="211"/></clipPath></defs><g clip-path="url(#arch-6ea18de110)"><g clip-path="url(#arch-2e80e525ba)"><g clip-path="url(#arch-d066d26c1d)"><g transform="matrix(1, 0, 0, 1, 37, 37)"><g clip-path="url(#arch-7232278f5d)"><g clip-path="url(#arch-58196bba47)"><g clip-path="url(#arch-b75048536a)"><g clip-path="url(#arch-0663ed4aee)"><path fill="var(--pop-1)" d="M 7 -5.964844 L 675.464844 7.105469 L 668.796875 347.996094 L 0.332031 334.925781 Z M 7 -5.964844 " fill-opacity="1" fill-rule="nonzero"/></g></g></g></g></g></g></g></g><g clip-path="url(#arch-e3ac83f6c7)"><g clip-path="url(#arch-35b5a16769)"><g clip-path="url(#arch-00976ef8fc)"><g transform="matrix(1, 0, 0, 1, 63, 378)"><g clip-path="url(#arch-11c7da044e)"><g clip-path="url(#arch-12bb58f16d)"><g clip-path="url(#arch-83af331dd7)"><g clip-path="url(#arch-c403f9c014)"><path fill="var(--pop-1)" d="M 0.8125 0.230469 L 305.234375 -304.191406 L 622.742188 13.3125 L 318.316406 317.738281 Z M 0.8125 0.230469 " fill-opacity="1" fill-rule="nonzero"/></g></g></g></g></g></g></g></g><g clip-path="url(#arch-71d5700b98)"><g clip-path="url(#arch-f65500bb7b)"><g clip-path="url(#arch-129ac4a65c)"><g transform="matrix(1, 0, 0, 1, 61, 60)"><g clip-path="url(#arch-7c164d14a0)"><g clip-path="url(#arch-585447bfb4)"><g clip-path="url(#arch-2cb430d199)"><g clip-path="url(#arch-8bbcb57ab0)"><path fill="var(--support)" d="M 7.207031 -5.347656 L 631.070312 6.851562 L 624.847656 324.996094 L 0.984375 312.796875 Z M 7.207031 -5.347656 " fill-opacity="1" fill-rule="nonzero"/></g></g></g></g></g></g></g></g><g clip-path="url(#arch-f6c1cdcd13)"><g clip-path="url(#arch-3a6cf53bb6)"><g transform="matrix(1, 0, 0, 1, 304, 146)"><g clip-path="url(#arch-5f03d4b3ad)"><g clip-path="url(#arch-9428d6f47d)"><g clip-path="url(#arch-b25cfe4a6b)"><path fill="var(--signal)" d="M 0.117188 0.820312 L 146.132812 0.820312 L 146.132812 146.832031 L 0.117188 146.832031 Z M 0.117188 0.820312 " fill-opacity="1" fill-rule="nonzero"/></g></g></g></g></g></g><g clip-path="url(#arch-af15d6deac)"><g clip-path="url(#arch-a048031b3d)"><g transform="matrix(1, 0, 0, 1, 385, 394)"><g clip-path="url(#arch-e52161d1cb)"><g clip-path="url(#arch-80efbda0d0)"><g clip-path="url(#arch-fb61cc4f07)"><path fill="var(--pop-2)" d="M 305.113281 0.4375 L 322.800781 18.125 L 18.117188 322.808594 L 0.433594 305.121094 Z M 305.113281 0.4375 " fill-opacity="1" fill-rule="nonzero"/></g></g></g></g></g></g><g clip-path="url(#arch-c8da5f30f1)"><g clip-path="url(#arch-1a18391483)"><g transform="matrix(1, 0, 0, 1, 42, 381)"><g clip-path="url(#arch-e5d7c67fd8)"><g clip-path="url(#arch-b63183bae6)"><g clip-path="url(#arch-52385a3a3c)"><path fill="var(--support)" d="M 0.519531 18.296875 L 18.203125 0.609375 L 335.738281 318.144531 L 318.050781 335.828125 Z M 0.519531 18.296875 " fill-opacity="1" fill-rule="nonzero"/></g></g></g></g></g></g><g clip-path="url(#arch-ef8d62af53)"><g clip-path="url(#arch-1b7915788e)"><g transform="matrix(1, 0, 0, 1, 171, 416)"><g clip-path="url(#arch-6787dd1b9b)"><g clip-path="url(#arch-f08dcc7435)"><g clip-path="url(#arch-a4216677f9)"><path fill="var(--support)" d="M 201.492188 210.9375 L 0.316406 210.9375 L 0.316406 1.117188 L 201.492188 1.117188 Z M 201.492188 210.9375 " fill-opacity="1" fill-rule="nonzero"/></g></g></g></g></g></g><g clip-path="url(#arch-8837f4d9a3)"><g clip-path="url(#arch-a3a4f2b6a3)"><g transform="matrix(1, 0, 0, 1, 385, 416)"><g clip-path="url(#arch-1deafbeec2)"><g clip-path="url(#arch-6dde546927)"><g clip-path="url(#arch-505b971264)"><path fill="var(--support)" d="M 210.554688 0.820312 L 210.554688 210.941406 L 0.4375 210.941406 L 0.4375 0.820312 Z M 210.554688 0.820312 " fill-opacity="1" fill-rule="nonzero"/></g></g></g></g></g></g></svg>