<svg xmlns="http://www.w3.org/2000/svg" xmlns:xlink="http://www.w3.org/1999/xlink" zoomAndPan="magnify" viewBox="0 0 750 749.999995" preserveAspectRatio="xMidYMid meet" version="1.0"><defs><clipPath id="blocks-d19f223a1f"><path d="M 48.800781 61.605469 L 375 61.605469 L 375 375 L 48.800781 375 Z M 48.800781 61.605469 " clip-rule="nonzero"/></clipPath><clipPath id="blocks-674be544de"><path d="M 0.800781 0.605469 L 327 0.605469 L 327 314 L 0.800781 314 Z M 0.800781 0.605469 " clip-rule="nonzero"/></clipPath><clipPath id="blocks-67260327f7"><rect x="0" width="327" y="0" height="314"/></clipPath><clipPath id="blocks-f2dbdc5802"><path d="M 375 61.605469 L 701.199219 61.605469 L 701.199219 151.800781 L 375 151.800781 Z M 375 61.605469 " clip-rule="nonzero"/></clipPath><clipPath id="blocks-21e1f8eb26"><path d="M 0 0.605469 L 326.199219 0.605469 L 326.199219 90.800781 L 0 90.800781 Z M 0 0.605469 " clip-rule="nonzero"/></clipPath><clipPath id="blocks-8f39be1496"><rect x="0" width="327" y="0" height="91"/></clipPath><clipPath id="blocks-244ff15164"><path d="M 375.003906 151.792969 L 538.101562 151.792969 L 538.101562 565.175781 L 375.003906 565.175781 Z M 375.003906 151.792969 " clip-rule="nonzero"/></clipPath><clipPath id="blocks-e224e7ac55"><path d="M 0.00390625 0.792969 L 163.101562 0.792969 L 163.101562 414.175781 L 0.00390625 414.175781 Z M 0.00390625 0.792969 " clip-rule="nonzero"/></clipPath><clipPath id="blocks-9c6351ae53"><rect x="0" width="164" y="0" height="415"/></clipPath><clipPath id="blocks-7c4df3804f"><path d="M 538.105469 151.792969 L 619.652344 151.792969 L 619.652344 374.992188 L 538.105469 374.992188 Z M 538.105469 151.792969 " clip-rule="nonzero"/></clipPath><clipPath id="blocks-89f7178b8e"><path d="M 0.105469 0.792969 L 81.652344 0.792969 L 81.652344 223.992188 L 0.105469 223.992188 Z M 0.105469 0.792969 " clip-rule="nonzero"/></clipPath><clipPath id="blocks-2786252389"><rect x="0" width="82" y="0" height="224"/></clipPath><clipPath id="blocks-aa897f6480"><path d="M 619.652344 151.792969 L 701.203125 151.792969 L 701.203125 446.527344 L 619.652344 446.527344 Z M 619.652344 151.792969 " clip-rule="nonzero"/></clipPath><clipPath id="blocks-86c00a8d33"><path d="M 0.652344 0.792969 L 82.203125 0.792969 L 82.203125 295.527344 L 0.652344 295.527344 Z M 0.652344 0.792969 " clip-rule="nonzero"/></clipPath><clipPath id="blocks-d4b23ebd5d"><rect x="0" width="83" y="0" height="296"/></clipPath><clipPath id="blocks-6135c3ab9f"><path d="M 538.101562 374.996094 L 578.878906 374.996094 L 578.878906 674.996094 L 538.101562 674.996094 Z M 538.101562 374.996094 " clip-rule="nonzero"/></clipPath><clipPath id="blocks-7387bce4bf"><path d="M 0.101562 0.996094 L 40.878906 0.996094 L 40.878906 300.996094 L 0.101562 300.996094 Z M 0.101562 0.996094 " clip-rule="nonzero"/></clipPath><clipPath id="blocks-52a51887d6"><rect x="0" width="41" y="0" height="301"/></clipPath><clipPath id="blocks-891506cd3b"><path d="M 578.878906 374.996094 L 619.652344 374.996094 L 619.652344 674.996094 L 578.878906 674.996094 Z M 578.878906 374.996094 " clip-rule="nonzero"/></clipPath><clipPath id="blocks-bd79155050"><path d="M 0.878906 0.996094 L 41.652344 0.996094 L 41.652344 300.996094 L 0.878906 300.996094 Z M 0.878906 0.996094 " clip-rule="nonzero"/></clipPath><clipPath id="blocks-25957aa624"><rect x="0" width="42" y="0" height="301"/></clipPath><clipPath id="blocks-d13ca7f275"><path d="M 48.800781 375 L 375 375 L 375 565.183594 L 48.800781 565.183594 Z M 48.800781 375 " clip-rule="nonzero"/></clipPath><clipPath id="blocks-a55406b597"><path d="M 0.800781 0 L 327 0 L 327 190.183594 L 0.800781 190.183594 Z M 0.800781 0 " clip-rule="nonzero"/></clipPath><clipPath id="blocks-2495be0bac"><rect x="0" width="327" y="0" height="191"/></clipPath><clipPath id="blocks-fdb81f8435"><path d="M 48.800781 565.183594 L 538.101562 565.183594 L 538.101562 675 L 48.800781 675 Z M 48.800781 565.183594 " clip-rule="nonzero"/></clipPath><clipPath id="blocks-b595989835"><path d="M 0.800781 0.183594 L 490.101562 0.183594 L 490.101562 110 L 0.800781 110 Z M 0.800781 0.183594 " clip-rule="nonzero"/></clipPath><clipPath id="blocks-3ca297cd89"><rect x="0" width="491" y="0" height="110"/></clipPath><clipPath id="blocks-5bae2834a5"><path d="M 619.652344 446.527344 L 701.203125 446.527344 L 701.203125 674.992188 L 619.652344 674.992188 Z M 619.652344 446.527344 " clip-rule="nonzero"/></clipPath><clipPath id="blocks-b7a69ed481"><path d="M 0.652344 0.527344 L 82.203125 0.527344 L 82.203125 228.992188 L 0.652344 228.992188 Z M 0.652344 0.527344 " clip-rule="nonzero"/></clipPath><clipPath id="blocks-c8c63cbeca"><rect x="0" width="83" y="0" height="229"/></clipPath></defs><g clip-path="url(#blocks-d19f223a1f)"><g transform="matrix(1, 0, 0, 1, 48, 61)"><g clip-path="url(#blocks-67260327f7)"><g clip-path="url(#blocks-674be544de)"><path fill="var(--lead)" d="M 0.800781 0.605469 L 326.433594 0.605469 L 326.433594 314 L 0.800781 314 Z M 0.800781 0.605469 " fill-opacity="1" fill-rule="nonzero"/></g></g></g></g><g clip-path="url(#blocks-f2dbdc5802)"><g transform="matrix(1, 0, 0, 1, 375, 61)"><g clip-path="url(#blocks-8f39be1496)"><g clip-path="url(#blocks-21e1f8eb26)"><path fill="var(--support)" d="M 0 0.605469 L 326.25 0.605469 L 326.25 90.800781 L 0 90.800781 Z M 0 0.605469 " fill-opacity="1" fill-rule="nonzero"/></g></g></g></g><g clip-path="url(#blocks-244ff15164)"><g transform="matrix(1, 0, 0, 1, 375, 151)"><g clip-path="url(#blocks-9c6351ae53)"><g clip-path="url(#blocks-e224e7ac55)"><path fill="var(--flash)" d="M 0.00390625 414.175781 L 0.00390625 0.691406 L 163.101562 0.691406 L 163.101562 414.175781 Z M 0.00390625 414.175781 " fill-opacity="1" fill-rule="nonzero"/></g></g></g></g><g clip-path="url(#blocks-7c4df3804f)"><g transform="matrix(1, 0, 0, 1, 538, 151)"><g clip-path="url(#blocks-2786252389)"><g clip-path="url(#blocks-89f7178b8e)"><path fill="var(--signal)" d="M 0.105469 223.992188 L 0.105469 0.6875 L 81.652344 0.6875 L 81.652344 223.992188 Z M 0.105469 223.992188 " fill-opacity="1" fill-rule="nonzero"/></g></g></g></g><g clip-path="url(#blocks-aa897f6480)"><g transform="matrix(1, 0, 0, 1, 619, 151)"><g clip-path="url(#blocks-d4b23ebd5d)"><g clip-path="url(#blocks-86c00a8d33)"><path fill="var(--wildcard)" d="M 0.652344 295.527344 L 0.652344 0.863281 L 82.203125 0.863281 L 82.203125 295.527344 Z M 0.652344 295.527344 " fill-opacity="1" fill-rule="nonzero"/></g></g></g></g><g clip-path="url(#blocks-6135c3ab9f)"><g transform="matrix(1, 0, 0, 1, 538, 374)"><g clip-path="url(#blocks-52a51887d6)"><g clip-path="url(#blocks-7387bce4bf)"><path fill="var(--pop-1)" d="M 0.101562 300.996094 L 0.101562 0.917969 L 40.878906 0.917969 L 40.878906 300.996094 Z M 0.101562 300.996094 " fill-opacity="1" fill-rule="nonzero"/></g></g></g></g><g clip-path="url(#blocks-891506cd3b)"><g transform="matrix(1, 0, 0, 1, 578, 374)"><g clip-path="url(#blocks-25957aa624)"><g clip-path="url(#blocks-bd79155050)"><path fill="var(--wildcard)" d="M 0.878906 300.996094 L 0.878906 0.917969 L 41.652344 0.917969 L 41.652344 300.996094 Z M 0.878906 300.996094 " fill-opacity="1" fill-rule="nonzero"/></g></g></g></g><g clip-path="url(#blocks-d13ca7f275)"><g transform="matrix(1, 0, 0, 1, 48, 375)"><g clip-path="url(#blocks-2495be0bac)"><g clip-path="url(#blocks-a55406b597)"><path fill="var(--pop-1)" d="M 0.800781 0 L 326.9375 0 L 326.9375 190.183594 L 0.800781 190.183594 Z M 0.800781 0 " fill-opacity="1" fill-rule="nonzero"/></g></g></g></g><g clip-path="url(#blocks-fdb81f8435)"><g transform="matrix(1, 0, 0, 1, 48, 565)"><g clip-path="url(#blocks-3ca297cd89)"><g clip-path="url(#blocks-b595989835)"><path fill="var(--pop-2)" d="M 0.800781 0.183594 L 490.253906 0.183594 L 490.253906 110 L 0.800781 110 Z M 0.800781 0.183594 " fill-opacity="1" fill-rule="nonzero"/></g></g></g></g><g clip-path="url(#blocks-5bae2834a5)"><g transform="matrix(1, 0, 0, 1, 619, 446)"><g clip-path="url(#blocks-c8c63cbeca)"><g clip-path="url(#blocks-b7a69ed481)"><path fill="var(--wildcard)" d="M 0.652344 228.992188 L 0.652344 0.585938 L 82.203125 0.585938 L 82.203125 228.992188 Z M 0.652344 228.992188 " fill-opacity="1" fill-rule="nonzero"/></g></g></g></g></svg>