<svg xmlns="http://www.w3.org/2000/svg" xmlns:xlink="http://www.w3.org/1999/xlink" zoomAndPan="magnify" viewBox="0 0 750 749.999995" preserveAspectRatio="xMidYMid meet" version="1.0"><defs><clipPath id="burst-1de14b5ccd"><path d="M 236.824219 247.859375 L 506.722656 247.859375 L 506.722656 517.753906 L 236.824219 517.753906 Z M 236.824219 247.859375 " clip-rule="nonzero"/></clipPath><clipPath id="burst-04b856dd1b"><path d="M 248.824219 247.859375 L 494.722656 247.859375 C 497.90625 247.859375 500.957031 249.125 503.207031 251.375 C 505.457031 253.625 506.722656 256.675781 506.722656 259.859375 L 506.722656 505.753906 C 506.722656 508.9375 505.457031 511.992188 503.207031 514.242188 C 500.957031 516.492188 497.90625 517.753906 494.722656 517.753906 L 248.824219 517.753906 C 245.640625 517.753906 242.589844 516.492188 240.339844 514.242188 C 238.089844 511.992188 236.824219 508.9375 236.824219 505.753906 L 236.824219 259.859375 C 236.824219 256.675781 238.089844 253.625 240.339844 251.375 C 242.589844 249.125 245.640625 247.859375 248.824219 247.859375 Z M 248.824219 247.859375 " clip-rule="nonzero"/></clipPath><clipPath id="burst-ae348c0335"><path d="M 0.824219 0.859375 L 270.722656 0.859375 L 270.722656 270.753906 L 0.824219 270.753906 Z M 0.824219 0.859375 " clip-rule="nonzero"/></clipPath><clipPath id="burst-8a1f37d425"><path d="M 12.824219 0.859375 L 258.722656 0.859375 C 261.90625 0.859375 264.957031 2.125 267.207031 4.375 C 269.457031 6.625 270.722656 9.675781 270.722656 12.859375 L 270.722656 258.753906 C 270.722656 261.9375 269.457031 264.992188 267.207031 267.242188 C 264.957031 269.492188 261.90625 270.753906 258.722656 270.753906 L 12.824219 270.753906 C 9.640625 270.753906 6.589844 269.492188 4.339844 267.242188 C 2.089844 264.992188 0.824219 261.9375 0.824219 258.753906 L 0.824219 12.859375 C 0.824219 9.675781 2.089844 6.625 4.339844 4.375 C 6.589844 2.125 9.640625 0.859375 12.824219 0.859375 Z M 12.824219 0.859375 " clip-rule="nonzero"/></clipPath><clipPath id="burst-2d29d1fa70"><rect x="0" width="271" y="0" height="271"/></clipPath><clipPath id="burst-3f085f18a1"><path d="M 269.175781 280.210938 L 474.371094 280.210938 L 474.371094 485.402344 L 269.175781 485.402344 Z M 269.175781 280.210938 " clip-rule="nonzero"/></clipPath><clipPath id="burst-7ee2c074f4"><path d="M 281.175781 280.210938 L 462.371094 280.210938 C 468.996094 280.210938 474.371094 285.582031 474.371094 292.210938 L 474.371094 473.402344 C 474.371094 480.03125 468.996094 485.402344 462.371094 485.402344 L 281.175781 485.402344 C 274.550781 485.402344 269.175781 480.03125 269.175781 473.402344 L 269.175781 292.210938 C 269.175781 285.582031 274.550781 280.210938 281.175781 280.210938 Z M 281.175781 280.210938 " clip-rule="nonzero"/></clipPath><clipPath id="burst-8e4f07159c"><path d="M 0.175781 0.210938 L 205.371094 0.210938 L 205.371094 205.402344 L 0.175781 205.402344 Z M 0.175781 0.210938 " clip-rule="nonzero"/></clipPath><clipPath id="burst-79db95d544"><path d="M 12.175781 0.210938 L 193.371094 0.210938 C 199.996094 0.210938 205.371094 5.582031 205.371094 12.210938 L 205.371094 193.402344 C 205.371094 200.03125 199.996094 205.402344 193.371094 205.402344 L 12.175781 205.402344 C 5.550781 205.402344 0.175781 200.03125 0.175781 193.402344 L 0.175781 12.210938 C 0.175781 5.582031 5.550781 0.210938 12.175781 0.210938 Z M 12.175781 0.210938 " clip-rule="nonzero"/></clipPath><clipPath id="burst-89bf4561b3"><rect x="0" width="206" y="0" height="206"/></clipPath><clipPath id="burst-61f583207b"><path d="M 57 47 L 232 47 L 232 250 L 57 250 Z M 57 47 " clip-rule="nonzero"/></clipPath><clipPath id="burst-fe869738a9"><path d="M 52.917969 67.574219 L 82.828125 42.949219 L 236.835938 230.019531 L 206.925781 254.644531 Z M 52.917969 67.574219 " clip-rule="nonzero"/></clipPath><clipPath id="burst-b1982865dc"><path d="M 62.179688 59.945312 L 73.566406 50.574219 C 76.023438 48.550781 79.179688 47.589844 82.347656 47.894531 C 85.515625 48.203125 88.433594 49.753906 90.457031 52.210938 L 229.199219 220.742188 C 231.222656 223.199219 232.1875 226.359375 231.878906 229.527344 C 231.574219 232.691406 230.019531 235.609375 227.5625 237.632812 L 216.179688 247.003906 C 213.722656 249.027344 210.5625 249.992188 207.394531 249.683594 C 204.226562 249.375 201.308594 247.824219 199.289062 245.367188 L 60.542969 76.839844 C 58.519531 74.382812 57.558594 71.222656 57.863281 68.054688 C 58.171875 64.886719 59.722656 61.96875 62.179688 59.945312 Z M 62.179688 59.945312 " clip-rule="nonzero"/></clipPath><clipPath id="burst-0ca67a4f6a"><path d="M 0.359375 0.519531 L 175 0.519531 L 175 203 L 0.359375 203 Z M 0.359375 0.519531 " clip-rule="nonzero"/></clipPath><clipPath id="burst-cb7250ffb2"><path d="M -4.082031 20.574219 L 25.828125 -4.050781 L 179.835938 183.019531 L 149.925781 207.644531 Z M -4.082031 20.574219 " clip-rule="nonzero"/></clipPath><clipPath id="burst-cee52f88a6"><path d="M 5.179688 12.945312 L 16.566406 3.574219 C 19.023438 1.550781 22.179688 0.589844 25.347656 0.894531 C 28.515625 1.203125 31.433594 2.753906 33.457031 5.210938 L 172.199219 173.742188 C 174.222656 176.199219 175.1875 179.359375 174.878906 182.527344 C 174.574219 185.691406 173.019531 188.609375 170.5625 190.632812 L 159.179688 200.003906 C 156.722656 202.027344 153.5625 202.992188 150.394531 202.683594 C 147.226562 202.375 144.308594 200.824219 142.289062 198.367188 L 3.542969 29.839844 C 1.519531 27.382812 0.558594 24.222656 0.863281 21.054688 C 1.171875 17.886719 2.722656 14.96875 5.179688 12.945312 Z M 5.179688 12.945312 " clip-rule="nonzero"/></clipPath><clipPath id="burst-765773e01f"><rect x="0" width="175" y="0" height="203"/></clipPath><clipPath id="burst-0535755d2d"><path d="M 518 47 L 693 47 L 693 250 L 518 250 Z M 518 47 " clip-rule="nonzero"/></clipPath><clipPath id="burst-e934c13e40"><path d="M 667.191406 42.964844 L 697.101562 67.59375 L 543.070312 254.644531 L 513.160156 230.015625 Z M 667.191406 42.964844 " clip-rule="nonzero"/></clipPath><clipPath id="burst-de6ed15e7e"><path d="M 676.457031 50.59375 L 687.839844 59.964844 C 690.296875 61.988281 691.847656 64.90625 692.15625 68.074219 C 692.460938 71.242188 691.496094 74.402344 689.472656 76.859375 L 550.710938 245.371094 C 548.6875 247.828125 545.769531 249.378906 542.601562 249.6875 C 539.433594 249.992188 536.277344 249.027344 533.820312 247.003906 L 522.4375 237.632812 C 519.980469 235.609375 518.425781 232.691406 518.121094 229.523438 C 517.8125 226.355469 518.777344 223.195312 520.800781 220.738281 L 659.5625 52.226562 C 661.585938 49.769531 664.503906 48.21875 667.671875 47.910156 C 670.839844 47.605469 674 48.570312 676.457031 50.59375 Z M 676.457031 50.59375 " clip-rule="nonzero"/></clipPath><clipPath id="burst-cc62f7141d"><path d="M 0 0.519531 L 174.640625 0.519531 L 174.640625 203 L 0 203 Z M 0 0.519531 " clip-rule="nonzero"/></clipPath><clipPath id="burst-10ff33ed6f"><path d="M 149.191406 -4.035156 L 179.101562 20.59375 L 25.070312 207.644531 L -4.839844 183.015625 Z M 149.191406 -4.035156 " clip-rule="nonzero"/></clipPath><clipPath id="burst-93f7fbac46"><path d="M 158.457031 3.59375 L 169.839844 12.964844 C 172.296875 14.988281 173.847656 17.90625 174.15625 21.074219 C 174.460938 24.242188 173.496094 27.402344 171.472656 29.859375 L 32.710938 198.371094 C 30.6875 200.828125 27.769531 202.378906 24.601562 202.6875 C 21.433594 202.992188 18.277344 202.027344 15.820312 200.003906 L 4.4375 190.632812 C 1.980469 188.609375 0.425781 185.691406 0.121094 182.523438 C -0.1875 179.355469 0.777344 176.195312 2.800781 173.738281 L 141.5625 5.226562 C 143.585938 2.769531 146.503906 1.21875 149.671875 0.910156 C 152.839844 0.605469 156 1.570312 158.457031 3.59375 Z M 158.457031 3.59375 " clip-rule="nonzero"/></clipPath><clipPath id="burst-4e95405073"><rect x="0" width="175" y="0" height="203"/></clipPath><clipPath id="burst-b56e44b65a"><path d="M 511 527 L 693 527 L 693 725 L 511 725 Z M 511 527 " clip-rule="nonzero"/></clipPath><clipPath id="burst-ab8b0cb96c"><path d="M 697.101562 703.59375 L 668.214844 729.417969 L 506.707031 548.785156 L 535.589844 522.960938 Z M 697.101562 703.59375 " clip-rule="nonzero"/></clipPath><clipPath id="burst-ed0d254c95"><path d="M 688.152344 711.589844 L 677.164062 721.421875 C 674.789062 723.542969 671.671875 724.632812 668.492188 724.457031 C 665.316406 724.277344 662.339844 722.847656 660.21875 720.472656 L 514.714844 557.746094 C 512.59375 555.371094 511.5 552.253906 511.679688 549.078125 C 511.855469 545.898438 513.289062 542.921875 515.664062 540.800781 L 526.652344 530.972656 C 529.027344 528.851562 532.144531 527.757812 535.324219 527.9375 C 538.5 528.113281 541.476562 529.546875 543.597656 531.917969 L 689.101562 694.648438 C 691.222656 697.019531 692.316406 700.136719 692.136719 703.316406 C 691.960938 706.492188 690.527344 709.46875 688.152344 711.589844 Z M 688.152344 711.589844 " clip-rule="nonzero"/></clipPath><clipPath id="burst-7d653216d5"><path d="M 0.441406 0.519531 L 181.398438 0.519531 L 181.398438 197.800781 L 0.441406 197.800781 Z M 0.441406 0.519531 " clip-rule="nonzero"/></clipPath><clipPath id="burst-03e1b387c6"><path d="M 186.101562 176.59375 L 157.214844 202.417969 L -4.292969 21.785156 L 24.589844 -4.039062 Z M 186.101562 176.59375 " clip-rule="nonzero"/></clipPath><clipPath id="burst-32e516d0d0"><path d="M 177.152344 184.589844 L 166.164062 194.421875 C 163.789062 196.542969 160.671875 197.632812 157.492188 197.457031 C 154.316406 197.277344 151.339844 195.847656 149.21875 193.472656 L 3.714844 30.746094 C 1.59375 28.371094 0.5 25.253906 0.679688 22.078125 C 0.855469 18.898438 2.289062 15.921875 4.664062 13.800781 L 15.652344 3.972656 C 18.027344 1.851562 21.144531 0.757812 24.324219 0.9375 C 27.5 1.113281 30.476562 2.546875 32.597656 4.917969 L 178.101562 167.648438 C 180.222656 170.019531 181.316406 173.136719 181.136719 176.316406 C 180.960938 179.492188 179.527344 182.46875 177.152344 184.589844 Z M 177.152344 184.589844 " clip-rule="nonzero"/></clipPath><clipPath id="burst-6ce9e9ce00"><rect x="0" width="182" y="0" height="198"/></clipPath><clipPath id="burst-641d602f3b"><path d="M 57 522 L 232 522 L 232 725 L 57 725 Z M 57 522 " clip-rule="nonzero"/></clipPath><clipPath id="burst-aba53fbfd6"><path d="M 206.914062 517.757812 L 236.820312 542.386719 L 82.792969 729.4375 L 52.882812 704.808594 Z M 206.914062 517.757812 " clip-rule="nonzero"/></clipPath><clipPath id="burst-cb7d3b7f58"><path d="M 216.175781 525.382812 L 227.558594 534.757812 C 230.015625 536.78125 231.566406 539.695312 231.875 542.863281 C 232.179688 546.03125 231.21875 549.191406 229.195312 551.648438 L 90.429688 720.160156 C 88.40625 722.617188 85.492188 724.171875 82.324219 724.476562 C 79.15625 724.785156 75.996094 723.820312 73.539062 721.796875 L 62.15625 712.421875 C 59.699219 710.398438 58.148438 707.484375 57.839844 704.316406 C 57.53125 701.148438 58.496094 697.988281 60.519531 695.53125 L 199.285156 527.019531 C 201.308594 524.5625 204.222656 523.011719 207.390625 522.703125 C 210.558594 522.398438 213.71875 523.359375 216.175781 525.382812 Z M 216.175781 525.382812 " clip-rule="nonzero"/></clipPath><clipPath id="burst-521a24a39d"><path d="M 0.359375 0.238281 L 175 0.238281 L 175 202.800781 L 0.359375 202.800781 Z M 0.359375 0.238281 " clip-rule="nonzero"/></clipPath><clipPath id="burst-77ae71375c"><path d="M 149.914062 -4.242188 L 179.820312 20.386719 L 25.792969 207.4375 L -4.117188 182.808594 Z M 149.914062 -4.242188 " clip-rule="nonzero"/></clipPath><clipPath id="burst-9c7e82e155"><path d="M 159.175781 3.382812 L 170.558594 12.757812 C 173.015625 14.78125 174.566406 17.695312 174.875 20.863281 C 175.179688 24.03125 174.21875 27.191406 172.195312 29.648438 L 33.429688 198.160156 C 31.40625 200.617188 28.492188 202.171875 25.324219 202.476562 C 22.15625 202.785156 18.996094 201.820312 16.539062 199.796875 L 5.15625 190.421875 C 2.699219 188.398438 1.148438 185.484375 0.839844 182.316406 C 0.53125 179.148438 1.496094 175.988281 3.519531 173.53125 L 142.285156 5.019531 C 144.308594 2.5625 147.222656 1.011719 150.390625 0.703125 C 153.558594 0.398438 156.71875 1.359375 159.175781 3.382812 Z M 159.175781 3.382812 " clip-rule="nonzero"/></clipPath><clipPath id="burst-654b68545b"><rect x="0" width="175" y="0" height="203"/></clipPath><clipPath id="burst-042789caa8"><path d="M 313.5625 324.597656 L 429.984375 324.597656 L 429.984375 441.015625 L 313.5625 441.015625 Z M 313.5625 324.597656 " clip-rule="nonzero"/></clipPath><clipPath id="burst-06959922cf"><path d="M 371.773438 324.597656 C 339.625 324.597656 313.5625 350.660156 313.5625 382.808594 C 313.5625 414.957031 339.625 441.015625 371.773438 441.015625 C 403.921875 441.015625 429.984375 414.957031 429.984375 382.808594 C 429.984375 350.660156 403.921875 324.597656 371.773438 324.597656 Z M 371.773438 324.597656 " clip-rule="nonzero"/></clipPath><clipPath id="burst-0db72069e1"><path d="M 0.5625 0.597656 L 116.984375 0.597656 L 116.984375 117.015625 L 0.5625 117.015625 Z M 0.5625 0.597656 " clip-rule="nonzero"/></clipPath><clipPath id="burst-87aac657b0"><path d="M 58.773438 0.597656 C 26.625 0.597656 0.5625 26.660156 0.5625 58.808594 C 0.5625 90.957031 26.625 117.015625 58.773438 117.015625 C 90.921875 117.015625 116.984375 90.957031 116.984375 58.808594 C 116.984375 26.660156 90.921875 0.597656 58.773438 0.597656 Z M 58.773438 0.597656 " clip-rule="nonzero"/></clipPath><clipPath id="burst-9e1dbec30b"><rect x="0" width="117" y="0" height="118"/></clipPath><clipPath id="burst-dcecd4e5cd"><path d="M 349.464844 360.5 L 394.082031 360.5 L 394.082031 405.113281 L 349.464844 405.113281 Z M 349.464844 360.5 " clip-rule="nonzero"/></clipPath><clipPath id="burst-7fcc8eabfa"><path d="M 371.773438 360.5 C 359.453125 360.5 349.464844 370.488281 349.464844 382.808594 C 349.464844 395.128906 359.453125 405.113281 371.773438 405.113281 C 384.09375 405.113281 394.082031 395.128906 394.082031 382.808594 C 394.082031 370.488281 384.09375 360.5 371.773438 360.5 Z M 371.773438 360.5 " clip-rule="nonzero"/></clipPath><clipPath id="burst-834164e4e1"><path d="M 0.464844 0.5 L 45.082031 0.5 L 45.082031 45.113281 L 0.464844 45.113281 Z M 0.464844 0.5 " clip-rule="nonzero"/></clipPath><clipPath id="burst-81017e68f7"><path d="M 22.773438 0.5 C 10.453125 0.5 0.464844 10.488281 0.464844 22.808594 C 0.464844 35.128906 10.453125 45.113281 22.773438 45.113281 C 35.09375 45.113281 45.082031 35.128906 45.082031 22.808594 C 45.082031 10.488281 35.09375 0.5 22.773438 0.5 Z M 22.773438 0.5 " clip-rule="nonzero"/></clipPath><clipPath id="burst-66429a1624"><rect x="0" width="46" y="0" height="46"/></clipPath></defs><g clip-path="url(#burst-1de14b5ccd)"><g clip-path="url(#burst-04b856dd1b)"><g transform="matrix(1, 0, 0, 1, 236, 247)"><g clip-path="url(#burst-2d29d1fa70)"><g clip-path="url(#burst-ae348c0335)"><g clip-path="url(#burst-8a1f37d425)"><path fill="var(--support)" d="M 0.824219 0.859375 L 270.722656 0.859375 L 270.722656 270.753906 L 0.824219 270.753906 Z M 0.824219 0.859375 " fill-opacity="1" fill-rule="nonzero"/></g></g></g></g></g></g><g clip-path="url(#burst-3f085f18a1)"><g clip-path="url(#burst-7ee2c074f4)"><g transform="matrix(1, 0, 0, 1, 269, 280)"><g clip-path="url(#burst-89bf4561b3)"><g clip-path="url(#burst-8e4f07159c)"><g clip-path="url(#burst-79db95d544)"><path fill="var(--pop-2)" d="M 0.175781 0.210938 L 205.371094 0.210938 L 205.371094 205.402344 L 0.175781 205.402344 Z M 0.175781 0.210938 " fill-opacity="1" fill-rule="nonzero"/></g></g></g></g></g></g><g clip-path="url(#burst-61f583207b)"><g clip-path="url(#burst-fe869738a9)"><g clip-path="url(#burst-b1982865dc)"><g transform="matrix(1, 0, 0, 1, 57, 47)"><g clip-path="url(#burst-765773e01f)"><g clip-path="url(#burst-0ca67a4f6a)"><g clip-path="url(#burst-cb7250ffb2)"><g clip-path="url(#burst-cee52f88a6)"><path fill="var(--pop-1)" d="M -4.082031 20.574219 L 25.828125 -4.050781 L 179.835938 183.019531 L 149.925781 207.644531 Z M -4.082031 20.574219 " fill-opacity="1" fill-rule="nonzero"/></g></g></g></g></g></g></g></g><g clip-path="url(#burst-0535755d2d)"><g clip-path="url(#burst-e934c13e40)"><g clip-path="url(#burst-de6ed15e7e)"><g transform="matrix(1, 0, 0, 1, 518, 47)"><g clip-path="url(#burst-4e95405073)"><g clip-path="url(#burst-cc62f7141d)"><g clip-path="url(#burst-10ff33ed6f)"><g clip-path="url(#burst-93f7fbac46)"><path fill="var(--signal)" d="M 149.191406 -4.035156 L 179.101562 20.59375 L 25.070312 207.644531 L -4.839844 183.015625 Z M 149.191406 -4.035156 " fill-opacity="1" fill-rule="nonzero"/></g></g></g></g></g></g></g></g><g clip-path="url(#burst-b56e44b65a)"><g clip-path="url(#burst-ab8b0cb96c)"><g clip-path="url(#burst-ed0d254c95)"><g transform="matrix(1, 0, 0, 1, 511, 527)"><g clip-path="url(#burst-6ce9e9ce00)"><g clip-path="url(#burst-7d653216d5)"><g clip-path="url(#burst-03e1b387c6)"><g clip-path="url(#burst-32e516d0d0)"><path fill="var(--flash)" d="M 186.101562 176.59375 L 157.214844 202.417969 L -4.292969 21.785156 L 24.589844 -4.039062 Z M 186.101562 176.59375 " fill-opacity="1" fill-rule="nonzero"/></g></g></g></g></g></g></g></g><g clip-path="url(#burst-641d602f3b)"><g clip-path="url(#burst-aba53fbfd6)"><g clip-path="url(#burst-cb7d3b7f58)"><g transform="matrix(1, 0, 0, 1, 57, 522)"><g clip-path="url(#burst-654b68545b)"><g clip-path="url(#burst-521a24a39d)"><g clip-path="url(#burst-77ae71375c)"><g clip-path="url(#burst-9c7e82e155)"><path fill="var(--wildcard)" d="M 149.914062 -4.242188 L 179.820312 20.386719 L 25.792969 207.4375 L -4.117188 182.808594 Z M 149.914062 -4.242188 " fill-opacity="1" fill-rule="nonzero"/></g></g></g></g></g></g></g></g><g clip-path="url(#burst-042789caa8)"><g clip-path="url(#burst-06959922cf)"><g transform="matrix(1, 0, 0, 1, 313, 324)"><g clip-path="url(#burst-9e1dbec30b)"><g clip-path="url(#burst-0db72069e1)"><g clip-path="url(#burst-87aac657b0)"><path fill="var(--support)" d="M 0.5625 0.597656 L 116.984375 0.597656 L 116.984375 117.015625 L 0.5625 117.015625 Z M 0.5625 0.597656 " fill-opacity="1" fill-rule="nonzero"/></g></g></g></g></g></g><g clip-path="url(#burst-dcecd4e5cd)"><g clip-path="url(#burst-7fcc8eabfa)"><g transform="matrix(1, 0, 0, 1, 349, 360)"><g clip-path="url(#burst-66429a1624)"><g clip-path="url(#burst-834164e4e1)"><g clip-path="url(#burst-81017e68f7)"><path fill="var(--lead)" d="M 0.464844 0.5 L 45.082031 0.5 L 45.082031 45.113281 L 0.464844 45.113281 Z M 0.464844 0.5 " fill-opacity="1" fill-rule="nonzero"/></g></g></g></g></g></g></svg>